<svg width="300" height="100" viewBox="0 0 300 100" fill="none" xmlns="http://www.w3.org/2000/svg">
<g clip-path="url(#clip0_3044_47832)">
<path d="M51.119 25.8343L42.3436 46.3101C42.3436 46.4372 42.2165 46.5644 42.0893 46.6916C42.0893 46.8188 41.9621 46.946 41.8349 46.946H41.7078C41.5806 47.0731 41.4534 47.2003 41.4534 47.2003C41.4534 47.2003 41.4534 47.2003 41.4534 47.3275C41.3262 47.4547 41.199 47.5819 40.9447 47.5819C40.8175 47.5819 40.6903 47.5819 40.5632 47.709C40.5632 47.709 40.5632 47.709 40.436 47.709C40.3088 47.709 40.1816 47.709 39.9273 47.709C39.8001 47.709 39.6729 47.709 39.4185 47.709C39.4185 47.709 39.4185 47.709 39.2914 47.709C39.1642 47.709 39.037 47.5819 38.9098 47.5819C38.7826 47.5819 38.6555 47.4547 38.4011 47.3275C38.2739 47.3275 38.1468 47.2003 38.1468 47.0731H38.0196C37.8924 46.946 37.7652 46.8188 37.7652 46.8188C37.638 46.6916 37.638 46.5644 37.5109 46.4372L33.6955 37.2804L29.8802 46.4372C29.8802 46.5644 29.753 46.6916 29.6258 46.8188C29.4986 46.946 29.3714 47.0731 29.3714 47.0731C29.2443 47.2003 29.1171 47.3275 29.1171 47.3275C28.8627 47.4547 28.8627 47.5819 28.6084 47.5819H28.4812C28.354 47.5819 28.2268 47.5819 28.2268 47.709C28.0997 47.709 28.0997 47.709 28.0997 47.709C27.8453 47.709 27.7181 47.709 27.5909 47.709C27.3366 47.709 27.2094 47.709 27.0822 47.709C27.0822 47.709 27.0822 47.709 26.955 47.709C26.8279 47.709 26.7007 47.5819 26.7007 47.5819C26.7007 47.5819 26.7007 47.5819 26.5735 47.5819C26.4463 47.5819 26.192 47.4547 26.0648 47.3275C26.0648 47.3275 25.9376 47.2003 25.8104 47.0731C25.8104 47.0731 25.8104 47.0731 25.6833 47.0731C25.6833 46.946 25.5561 46.8188 25.4289 46.8188C25.3017 46.6916 25.3017 46.5644 25.1746 46.4372L15.7633 25.8343C15.1274 24.4354 15.7633 22.782 17.2895 22.1462C18.5613 21.5103 20.2146 22.1462 20.7233 23.6723L26.955 37.9163L30.6432 29.141C31.1519 28.1235 32.1694 27.4876 33.1868 27.4876C34.3314 27.4876 35.3488 28.1235 35.7304 29.141L39.5457 37.9163L45.7775 23.6723C46.2862 22.1462 47.9395 21.5103 49.3385 22.1462C50.9918 22.9092 51.7549 24.4354 51.119 25.8343Z" fill="black"/>
<path d="M54.9346 34.8643C54.9346 27.6151 60.6576 21.6377 67.7796 21.6377C74.6472 21.6377 80.1159 26.7248 80.4974 33.974C80.4974 33.974 80.4974 34.1012 80.4974 34.2284C80.4974 34.3556 80.4974 34.6099 80.4974 34.7371C80.3703 36.0089 79.2257 36.8991 77.6995 36.8991H60.912C61.1663 38.1709 61.8022 39.4427 62.6925 40.3329C63.8371 41.6047 65.8719 42.495 67.7796 42.7493C69.6873 42.8765 71.9765 42.495 73.2483 41.4775C74.3929 40.3329 76.5549 40.4601 77.1908 41.3504C77.8267 42.1134 78.4626 43.6396 77.1908 44.7842C74.6472 47.2006 71.4678 48.218 67.7796 48.218C60.5304 48.0908 54.9346 42.1134 54.9346 34.8643ZM60.6576 32.3207H75.6647C75.1559 30.1587 72.4852 27.1064 67.7796 26.7248C63.3283 26.852 61.1663 30.1587 60.6576 32.3207Z" fill="black"/>
<path d="M84.4395 35.1194C84.4395 27.8703 90.4168 22.2744 97.7932 22.2744C100.845 22.2744 103.771 23.2918 106.06 25.0723C106.569 25.4539 106.696 26.2169 106.187 26.8528C105.805 27.3616 105.042 27.4887 104.406 27.1072C102.499 25.5811 100.21 24.818 97.7932 24.818C91.8158 24.818 86.983 29.5236 86.983 35.2466C86.983 41.0968 91.6886 45.6753 97.7932 45.6753C100.337 45.6753 102.626 44.785 104.406 43.386C105.042 43.0045 105.678 43.1317 106.187 43.6404C106.696 44.2763 106.569 45.0394 105.933 45.5481C103.771 47.2014 100.845 48.346 97.7932 48.346C90.4168 48.0917 84.4395 42.3686 84.4395 35.1194Z" fill="black"/>
<path d="M135.693 23.4192V46.8201C135.693 47.456 135.057 48.0919 134.421 48.0919C133.785 48.0919 133.15 47.456 133.15 46.8201V43.0047C130.988 46.057 127.427 48.0919 123.357 48.0919C116.489 48.0919 111.021 42.2417 111.021 35.1197C111.021 27.9977 116.489 22.1475 123.357 22.1475C127.299 22.1475 130.86 24.1823 133.15 27.2346V23.4192C133.15 22.6562 133.785 22.1475 134.421 22.1475C135.057 22.1475 135.693 22.6562 135.693 23.4192ZM133.15 35.1197C133.15 29.2695 128.698 24.691 123.357 24.691C118.015 24.691 113.564 29.3966 113.564 35.1197C113.564 40.9699 118.015 45.5483 123.357 45.5483C128.698 45.5483 133.15 40.9699 133.15 35.1197Z" fill="black"/>
<path d="M162.019 32.703C162.019 28.2518 158.458 24.6908 154.007 24.6908C149.555 24.6908 146.121 28.2518 145.994 32.703V46.8199V47.0742C145.994 47.3286 145.867 47.4558 145.74 47.7101C145.486 47.9645 145.104 48.2188 144.85 48.2188H144.595C144.214 48.0916 143.959 47.8373 143.705 47.5829V47.4558V47.3286V46.8199V32.703V32.3215V23.5462C143.705 22.9103 144.214 22.2744 144.977 22.2744C145.613 22.2744 146.249 22.9103 146.249 23.5462V26.0898C148.156 23.8006 151.081 22.2744 154.261 22.2744C160.111 22.2744 164.817 26.98 164.817 32.8302V46.8199C164.817 47.5829 164.181 48.0916 163.545 48.0916C162.909 48.0916 162.273 47.5829 162.273 46.8199V32.703H162.019Z" fill="black"/>
<path d="M185.165 24.5639C185.165 26.0901 183.766 27.489 182.24 27.489H180.968V42.2418C182.622 42.2418 183.894 43.5135 183.894 45.1669C183.894 46.8202 182.622 48.092 180.968 48.092C177.789 48.092 175.118 45.4212 175.118 42.2418V27.489H173.592C171.939 27.489 170.667 26.2173 170.667 24.5639C170.667 22.9106 171.939 21.6388 173.592 21.6388H175.118V14.0081C175.118 12.3548 176.39 11.083 178.043 11.083C179.697 11.083 180.968 12.3548 180.968 14.0081V21.6388H182.24C183.766 21.6388 185.165 22.9106 185.165 24.5639Z" fill="black"/>
<path d="M204.369 24.4356C204.369 25.9618 203.097 27.2336 201.571 27.2336C200.299 27.2336 199.282 27.4879 198.391 28.251C197.374 28.8869 196.611 29.7771 195.975 30.7945C194.703 32.4479 194.067 34.4827 193.813 35.2458V45.2929C193.813 46.819 192.541 48.0908 190.888 48.0908C189.362 48.0908 188.09 46.819 188.09 45.2929V24.4356C188.09 22.9095 189.362 21.6377 190.888 21.6377C192.414 21.6377 193.813 22.9095 193.813 24.4356V24.8172C194.067 24.4356 194.576 24.0541 194.957 23.7997C196.738 22.6551 199.027 21.6377 201.571 21.7649C203.224 21.6377 204.369 22.9095 204.369 24.4356Z" fill="black"/>
<path d="M229.677 34.8738V45.3024C229.677 46.8286 228.406 48.1004 226.88 48.1004C225.481 48.1004 224.463 47.0829 224.082 45.8112C222.047 47.2101 219.63 48.1004 217.087 48.1004C213.526 48.1004 210.346 46.5742 208.057 44.285C205.768 41.8686 204.496 38.562 204.496 35.001C204.496 31.3128 205.768 28.1333 208.057 25.7169C210.346 23.3006 213.399 21.7744 217.087 21.7744C219.758 21.7744 222.174 22.6647 224.082 24.0636C224.336 22.7918 225.481 21.7744 226.88 21.7744C228.406 21.7744 229.677 23.0462 229.677 24.5723V34.8738ZM224.082 34.8738C224.082 32.7118 223.319 30.8041 222.047 29.4051C220.775 28.0062 218.994 27.2431 217.087 27.2431C215.179 27.2431 213.399 28.0062 212.127 29.4051C210.855 30.6769 210.092 32.5846 210.092 34.8738C210.092 37.0358 210.855 38.9435 212.127 40.3425C213.399 41.6143 215.179 42.3773 217.087 42.3773C218.994 42.3773 220.775 41.6143 222.047 40.3425C223.319 38.9435 224.082 37.0358 224.082 34.8738Z" fill="black"/>
<path d="M234.002 34.8643C234.002 27.4879 240.107 21.6377 247.483 21.6377C250.662 21.6377 253.587 22.7823 255.877 24.5628C257.148 25.4531 257.276 27.3607 256.513 28.5053C255.495 29.7771 253.715 30.0315 252.57 29.0141C251.171 27.9966 249.518 27.3607 247.483 27.3607C243.159 27.3607 239.598 30.9217 239.598 34.9914C239.598 39.0612 243.159 42.495 247.483 42.495C249.391 42.495 251.171 41.8591 252.57 40.8417C253.715 39.9514 255.495 40.2058 256.513 41.4775C257.403 42.6222 257.148 44.2755 255.877 45.4201C253.587 47.0734 250.662 48.218 247.483 48.218C240.107 48.0908 234.002 42.1134 234.002 34.8643Z" fill="black"/>
<path d="M261.218 45.1669V14.0081C261.218 12.482 262.49 11.083 264.143 11.083C265.796 11.083 267.068 12.3548 267.068 14.0081V32.3218L277.878 21.5117C279.023 20.367 280.93 20.367 281.948 21.5117C283.092 22.6563 283.092 24.5639 281.948 25.5814L274.063 33.4664L282.202 43.2592C283.22 44.531 283.092 46.4387 281.821 47.3289C281.312 47.8376 280.549 47.9648 279.913 47.9648C279.023 47.9648 278.26 47.5833 277.751 46.9474L269.993 37.5362L267.068 40.4613V45.1669C267.068 46.693 265.796 48.092 264.143 48.092C262.49 48.092 261.218 46.8202 261.218 45.1669Z" fill="black"/>
<path d="M217.087 38.5522C218.984 38.5522 220.521 37.0148 220.521 35.1184C220.521 33.2219 218.984 31.6846 217.087 31.6846C215.191 31.6846 213.653 33.2219 213.653 35.1184C213.653 37.0148 215.191 38.5522 217.087 38.5522Z" fill="#44A6D7"/>
<path d="M247.61 38.5522C249.506 38.5522 251.043 37.0148 251.043 35.1184C251.043 33.2219 249.506 31.6846 247.61 31.6846C245.713 31.6846 244.176 33.2219 244.176 35.1184C244.176 37.0148 245.713 38.5522 247.61 38.5522Z" fill="#44A6D7"/>
<path d="M232.221 69.2032C225.353 69.2032 218.995 66.1509 214.162 60.6823C213.271 59.6648 213.399 58.2659 214.416 57.3756C215.434 56.4854 216.832 56.6125 217.723 57.63C221.665 62.0812 226.752 64.6248 232.221 64.6248C237.69 64.6248 242.777 62.2084 246.719 57.63C247.61 56.6125 249.009 56.4854 250.026 57.3756C251.044 58.2659 251.171 59.6648 250.28 60.6823C245.575 66.1509 239.089 69.2032 232.221 69.2032Z" fill="#1D1E1B"/>
</g>
<defs>
<clipPath id="clip0_3044_47832">
<rect width="300" height="100" fill="white"/>
</clipPath>
</defs>
</svg>
