<svg width="28" height="28" viewBox="0 0 28 28" fill="none" xmlns="http://www.w3.org/2000/svg">
<path d="M19.9676 23.7262H8.03108L6.07051 21.4699H21.9283L19.9676 23.7262ZM9.29766 9.51949C10.6009 6.7835 12.1018 5.05528 13.5074 4.63481V17.071H7.11929C7.27207 14.9699 8.12499 11.9814 9.29766 9.51949ZM14.8225 17.096V7.85645L22.0223 17.096H14.8225ZM23.3412 20.1961H14.8225V18.3698H23.3424C23.4647 18.3698 23.5846 18.3368 23.6885 18.2744C23.7925 18.2121 23.8765 18.1229 23.931 18.0169C23.9855 17.9108 24.0085 17.7922 23.9972 17.6743C23.986 17.5563 23.941 17.4438 23.8673 17.3492L14.8225 5.74206V3.89776C14.8225 3.54603 14.5281 3.26087 14.165 3.26087C12.973 3.26087 11.7983 3.86035 10.6734 5.04272C9.75437 6.00866 8.8897 7.33534 8.10351 8.98586C6.73523 11.8583 5.7796 15.445 5.7796 17.7079C5.7796 18.0596 6.07401 18.3448 6.43717 18.3448H13.5074V20.1961H4.6576C4.53234 20.1961 4.40968 20.2308 4.30406 20.296C4.19844 20.3612 4.11425 20.4543 4.0614 20.5643C4.00855 20.6743 3.98923 20.7966 4.00573 20.9169C4.02222 21.0371 4.07384 21.1503 4.15451 21.2432L7.22196 24.7732C7.28368 24.8442 7.36069 24.9013 7.44759 24.9405C7.53449 24.9797 7.62919 25 7.72505 25H20.2737C20.4677 25 20.6518 24.917 20.7768 24.7732L23.8443 21.2432C23.925 21.1503 23.9766 21.0371 23.9931 20.9169C24.0096 20.7966 23.9902 20.6743 23.9374 20.5643C23.8845 20.4543 23.8003 20.3612 23.6947 20.296C23.5891 20.2307 23.4664 20.1961 23.3412 20.1961Z" fill="white"/>
</svg>
