<svg width="29" height="28" viewBox="0 0 29 28" fill="none" xmlns="http://www.w3.org/2000/svg">
<g clipPath="url(#clip0_2167_52)">
<mask id="mask0_2167_52" style="mask-type:luminance" maskUnits="userSpaceOnUse" x="0" y="0" width="29" height="28">
<path d="M0.5 8.2016e-05H28.4999V28H0.5V8.2016e-05Z" fill="white"/>
</mask>
<g mask="url(#mask0_2167_52)">
<path d="M21.9453 26.3738H7.05467L4.60889 23.4676H24.3912L21.9453 26.3738ZM8.6347 8.07557C10.2605 4.55162 12.1328 2.32568 13.8863 1.78411V17.8019H5.91723C6.10781 15.0956 7.17181 11.2464 8.6347 8.07557ZM15.5269 17.8341V5.93357L24.5085 17.8341H15.5269ZM26.1537 21.827H15.5269V19.4747H26.1553C26.3078 19.4747 26.4573 19.4322 26.587 19.3519C26.7168 19.2716 26.8215 19.1567 26.8895 19.0201C26.9575 18.8836 26.9861 18.7308 26.9721 18.5789C26.958 18.427 26.9019 18.282 26.81 18.1602L15.5269 3.21025V0.834797C15.5269 0.381767 15.1596 0.0144863 14.7066 0.0144863C13.2196 0.0144863 11.7542 0.786617 10.3509 2.3095C9.20443 3.55363 8.12578 5.26239 7.14501 7.38825C5.43811 11.088 4.24598 15.7076 4.24598 18.6222C4.24598 19.0752 4.61326 19.4425 5.06629 19.4425H13.8863V21.827H2.84631C2.69005 21.827 2.53704 21.8716 2.40528 21.9557C2.27351 22.0397 2.16849 22.1596 2.10256 22.3012C2.03663 22.4429 2.01254 22.6005 2.03312 22.7554C2.05369 22.9103 2.11809 23.0561 2.21872 23.1756L6.0453 27.7223C6.12229 27.8138 6.21836 27.8873 6.32677 27.9378C6.43518 27.9883 6.55332 28.0144 6.6729 28.0144H22.327C22.5691 28.0144 22.7988 27.9075 22.9547 27.7223L26.7813 23.1756C26.882 23.0561 26.9464 22.9103 26.9669 22.7554C26.9875 22.6004 26.9634 22.4429 26.8975 22.3012C26.8315 22.1595 26.7265 22.0396 26.5947 21.9556C26.463 21.8716 26.3099 21.827 26.1537 21.827Z" fill="white"/>
</g>
</g>
<defs>
<clipPath id="clip0_2167_52">
<rect width="28" height="28" fill="white" transform="translate(0.5)"/>
</clipPath>
</defs>
</svg>
