<svg width="29" height="28" viewBox="0 0 29 28" fill="none" xmlns="http://www.w3.org/2000/svg">
<g clipPath="url(#clip0_2167_60)">
<path d="M28.1897 10.2279L20.6411 4.15043C20.4932 4.03135 20.3091 3.96643 20.1192 3.96643C19.9293 3.96643 19.7452 4.03135 19.5973 4.15043L17.3097 5.99203L15.0223 4.15043C14.8744 4.03135 14.6902 3.96643 14.5004 3.96643C14.3105 3.96643 14.1264 4.03135 13.9785 4.15043L11.6908 5.99203L9.4034 4.15043C9.25552 4.03135 9.07137 3.96643 8.88152 3.96643C8.69166 3.96643 8.50751 4.03135 8.35963 4.15043L0.810352 10.2279C0.713463 10.3059 0.635291 10.4046 0.581582 10.5168C0.527874 10.629 0.499997 10.7518 0.5 10.8762V23.2014C0.5 23.661 0.872641 24.0337 1.33223 24.0337H6.5153C6.97489 24.0337 7.34753 23.661 7.34753 23.2014V19.4878C7.34753 18.6421 8.0355 17.9542 8.88113 17.9542C9.72677 17.9542 10.4148 18.6421 10.4148 19.4878V23.2014C10.4148 23.661 10.7874 24.0337 11.247 24.0337H27.6678C28.1274 24.0337 28.5 23.661 28.5 23.2014V10.8762C28.5 10.7518 28.4721 10.629 28.4184 10.5168C28.3647 10.4046 28.2866 10.3059 28.1897 10.2279ZM15.5979 22.3691H13.4021L12.0792 22.3692V19.4878C12.0792 17.7243 10.6445 16.2897 8.88108 16.2897C7.11757 16.2897 5.68301 17.7243 5.68301 19.4878V22.3692H2.16447V11.2746L8.88146 5.86707L15.5979 11.2745V22.3691ZM21.2167 22.3692H17.2624V10.8762C17.2624 10.6242 17.1482 10.3859 16.952 10.2279L13.0179 7.06051L14.5003 5.86712L21.2167 11.2746V22.3692ZM26.8355 22.3692H22.8811V10.8762C22.8811 10.6242 22.767 10.386 22.5708 10.2279L18.6367 7.06046L20.1191 5.86707L26.8355 11.2745V22.3692Z" fill="#9CA3AF"/>
</g>
<defs>
<clipPath id="clip0_2167_60">
<rect width="28" height="28" fill="white" transform="translate(0.5)"/>
</clipPath>
</defs>
</svg>
