<svg width="29" height="28" viewBox="0 0 29 28" fill="none" xmlns="http://www.w3.org/2000/svg">
<g clipPath="url(#clip0_2167_71)">
<path d="M26.0769 13.2596H22.0468L20.5022 9.39821C20.2708 8.81989 19.8391 8.36948 19.3046 8.11295C18.9839 7.95905 18.6261 7.875 18.2524 7.875H7.42141C6.84408 7.875 6.30316 8.07554 5.87786 8.42756C5.62263 8.63882 5.40908 8.90466 5.25415 9.21446L3.23153 13.2596H2.92304C1.58697 13.2596 0.5 14.3466 0.5 15.6827V18.9135C0.5 20.2496 1.58697 21.3366 2.92309 21.3366H4.01137C4.14946 23.141 5.66075 24.5674 7.5 24.5674C9.33925 24.5674 10.8505 23.1411 10.9886 21.3366H18.0114C18.1495 23.141 19.6609 24.5674 21.5001 24.5674C23.3393 24.5674 24.8506 23.1411 24.9887 21.3366H26.0769C27.413 21.3366 28.5 20.2496 28.5 18.9135V15.6827C28.5 14.3466 27.413 13.2596 26.0769 13.2596ZM18.2525 9.49041C18.414 9.4899 18.572 9.53807 18.7058 9.62865C18.8395 9.71922 18.9429 9.848 19.0024 9.99819L20.307 13.2596H13.7152L13.6964 9.49041H18.2525ZM6.69905 9.93688C6.73394 9.86709 6.7787 9.80268 6.83194 9.74564C6.97073 9.59671 7.16099 9.50616 7.3641 9.49238C7.38308 9.49102 7.40222 9.49041 7.42147 9.49041H12.081L12.0999 13.2596H5.0377L6.69905 9.93688ZM7.5 22.952C6.46083 22.952 5.61536 22.1065 5.61536 21.0673C5.61536 20.613 5.77702 20.1956 6.04586 19.8698L6.04723 19.8682C6.06456 19.8472 6.08245 19.8267 6.10066 19.8065L6.11198 19.7941C6.1268 19.778 6.14189 19.7622 6.15726 19.7466C6.16366 19.7401 6.17005 19.7336 6.17656 19.7272C6.18898 19.7148 6.20177 19.7029 6.21452 19.691C6.22376 19.6824 6.23289 19.6737 6.2423 19.6652C6.25116 19.6573 6.26029 19.6496 6.26931 19.6418C6.50301 19.4401 6.78252 19.2986 7.08345 19.2297L7.09559 19.2269C7.12506 19.2204 7.15469 19.2147 7.18445 19.2097C7.20212 19.2067 7.21984 19.204 7.23766 19.2014C7.25057 19.1996 7.26359 19.198 7.2766 19.1964C7.29186 19.1946 7.30706 19.1928 7.32243 19.1913C7.33971 19.1897 7.3571 19.1885 7.37449 19.1873C7.3863 19.1865 7.39806 19.1856 7.40993 19.185C7.43973 19.1836 7.46976 19.1828 7.49989 19.1828C7.53002 19.1828 7.56005 19.1837 7.58985 19.185C7.60172 19.1856 7.61342 19.1866 7.62529 19.1873C7.64268 19.1885 7.66007 19.1897 7.67735 19.1913C7.69277 19.1928 7.70803 19.1946 7.72334 19.1965C7.73625 19.198 7.74916 19.1996 7.76201 19.2014C7.789 19.2052 7.81589 19.2096 7.84267 19.2147C7.86329 19.2185 7.88391 19.2225 7.9043 19.227L7.91612 19.2297C8.21764 19.2987 8.49765 19.4406 8.73167 19.6429C8.74026 19.6503 8.7489 19.6575 8.75732 19.6651C8.767 19.6738 8.77646 19.6827 8.78598 19.6916C8.79845 19.7033 8.81091 19.715 8.823 19.7269C8.82978 19.7336 8.8364 19.7404 8.84307 19.7472C8.86236 19.7667 8.88119 19.7866 8.89956 19.8069C8.91755 19.8269 8.93522 19.8472 8.95234 19.8679L8.95425 19.8701C9.23277 20.2069 9.38495 20.6304 9.38453 21.0674C9.38464 22.1065 8.53917 22.952 7.5 22.952ZM21.5 22.952C20.4608 22.952 19.6154 22.1065 19.6154 21.0673C19.6154 20.6128 19.7771 20.1954 20.046 19.8695L20.0467 19.8686C20.0643 19.8474 20.0824 19.8266 20.1009 19.8062L20.1116 19.7944C20.1267 19.778 20.142 19.762 20.1576 19.7462C20.1638 19.7399 20.17 19.7336 20.1764 19.7273C20.189 19.7148 20.202 19.7026 20.2151 19.6905C20.224 19.682 20.233 19.6736 20.2422 19.6653C20.2513 19.657 20.2608 19.6492 20.2701 19.6411C20.5037 19.4397 20.7829 19.2985 21.0834 19.2296L21.0958 19.2268C21.116 19.2223 21.1365 19.2183 21.1571 19.2145C21.1662 19.2128 21.1754 19.2111 21.1847 19.2095C21.2023 19.2065 21.22 19.2038 21.2378 19.2013C21.2507 19.1995 21.2638 19.1979 21.2768 19.1963C21.292 19.1945 21.3072 19.1927 21.3225 19.1912C21.3398 19.1896 21.3573 19.1884 21.3747 19.1872C21.3865 19.1864 21.3982 19.1855 21.41 19.1849C21.4398 19.1835 21.4699 19.1827 21.5 19.1827C21.5301 19.1827 21.5602 19.1836 21.59 19.1849C21.6018 19.1855 21.6135 19.1865 21.6253 19.1872C21.6428 19.1884 21.6602 19.1896 21.6775 19.1912C21.6928 19.1927 21.708 19.1944 21.7232 19.1963C21.7362 19.1979 21.7493 19.1995 21.7622 19.2013C21.8099 19.208 21.8572 19.2165 21.9042 19.2268L21.9165 19.2296C22.2171 19.2985 22.4963 19.4397 22.7298 19.6411C22.7391 19.6492 22.7486 19.657 22.7578 19.6653C22.7669 19.6736 22.7759 19.682 22.7849 19.6905C22.7979 19.7026 22.8109 19.7148 22.8235 19.7273C22.8298 19.7335 22.8361 19.7398 22.8424 19.7462C22.8617 19.7658 22.8806 19.7858 22.8991 19.8062C22.9176 19.8266 22.9357 19.8474 22.9532 19.8686L22.9539 19.8695C23.2327 20.2064 23.385 20.6301 23.3846 21.0673C23.3846 22.1065 22.5392 22.952 21.5 22.952ZM26.8846 15.952H25.8077C25.3616 15.952 25.0001 16.3136 25.0001 16.7596C25.0001 17.2057 25.3617 17.5673 25.8077 17.5673H26.8846V18.9135C26.8846 19.3588 26.5223 19.7211 26.077 19.7211H24.7313C24.7078 19.6654 24.6828 19.6102 24.6564 19.5558L24.6516 19.5459C24.6279 19.4968 24.603 19.4483 24.5769 19.4004C24.4996 19.2585 24.4125 19.1221 24.3164 18.9923C24.3096 18.9831 24.3028 18.9738 24.296 18.9646C24.266 18.9248 24.2352 18.8857 24.2036 18.8472C24.1963 18.8384 24.1887 18.8298 24.1813 18.821C24.1571 18.7922 24.1325 18.7638 24.1074 18.7358C24.0903 18.7167 24.0728 18.698 24.0553 18.6793C24.0198 18.6414 23.9836 18.6042 23.9466 18.5678C23.941 18.5624 23.9353 18.5572 23.9298 18.5518C23.4826 18.1197 22.9211 17.8057 22.2954 17.6597C22.2872 17.6578 22.2789 17.6558 22.2707 17.654C22.235 17.6459 22.1993 17.6383 22.1634 17.6314C22.1484 17.6285 22.1333 17.6259 22.1183 17.6233C22.0707 17.6147 22.0229 17.6071 21.975 17.6006C21.9439 17.5961 21.9127 17.5921 21.8814 17.5886C21.8602 17.5863 21.8388 17.5843 21.8175 17.5825C21.783 17.5794 21.7484 17.5767 21.7138 17.5746C21.6427 17.57 21.5714 17.5677 21.5001 17.5674C21.3941 17.5677 21.2882 17.5727 21.1827 17.5825C21.1614 17.5844 21.14 17.5863 21.1188 17.5886C21.0875 17.5921 21.0563 17.5961 21.0252 17.6006C20.9771 17.6071 20.9294 17.6148 20.8819 17.6233C20.8669 17.6259 20.8518 17.6285 20.8368 17.6314C20.8008 17.6383 20.7652 17.646 20.7296 17.654L20.7048 17.6597C20.0791 17.8057 19.5176 18.1197 19.0704 18.5518C19.0649 18.5572 19.0591 18.5624 19.0537 18.5678C19.0166 18.6042 18.9804 18.6414 18.9449 18.6793C18.9274 18.698 18.9098 18.7167 18.8928 18.7358C18.8677 18.7638 18.8431 18.7922 18.8189 18.821C18.8116 18.8298 18.8039 18.8384 18.7966 18.8472C18.765 18.8857 18.7342 18.9249 18.7043 18.9646C18.6974 18.9738 18.6906 18.9831 18.6839 18.9923C18.6578 19.0275 18.6325 19.0631 18.6078 19.0992L18.5933 19.1203C18.5323 19.211 18.4756 19.3044 18.4233 19.4004C18.3956 19.4515 18.369 19.5034 18.3438 19.5558C18.3176 19.6102 18.2924 19.6652 18.269 19.7212H10.7313C10.7078 19.6655 10.6829 19.6105 10.6566 19.5563L10.6513 19.5455C10.6278 19.4968 10.6031 19.4487 10.5773 19.4012L10.5767 19.4001C10.4997 19.2588 10.413 19.123 10.3172 18.9937C10.3098 18.9838 10.3026 18.9738 10.2951 18.964C10.2663 18.9257 10.2367 18.8881 10.2063 18.851C10.1969 18.8395 10.1871 18.8284 10.1776 18.817C10.1547 18.7899 10.1315 18.7631 10.1079 18.7366C10.0901 18.7169 10.0721 18.6974 10.0539 18.678C10.0403 18.6635 10.0266 18.6492 10.0128 18.6349C9.99068 18.612 9.96825 18.5894 9.94552 18.5671C9.94125 18.5629 9.93682 18.5589 9.93261 18.5548C9.48477 18.121 8.92204 17.806 8.29477 17.6596L8.27077 17.6541C8.23496 17.6459 8.19902 17.6383 8.16298 17.6312C8.14827 17.6284 8.13345 17.626 8.11873 17.6233C8.07076 17.6147 8.0226 17.6071 7.97431 17.6005C7.94333 17.5961 7.9123 17.5921 7.88123 17.5886C7.85988 17.5864 7.83852 17.5843 7.81713 17.5825C7.78265 17.5793 7.74812 17.5767 7.71355 17.5746C7.64239 17.57 7.5711 17.5677 7.49978 17.5674C7.44635 17.5674 7.39314 17.5691 7.34015 17.5715C7.32205 17.5723 7.30405 17.5734 7.28601 17.5746C7.25134 17.5767 7.21683 17.5794 7.18243 17.5825C7.16105 17.5844 7.13961 17.5863 7.11834 17.5886C7.08716 17.592 7.05621 17.5962 7.02526 17.6005C6.9768 17.6071 6.92868 17.6148 6.88083 17.6233C6.86606 17.626 6.85124 17.6284 6.83659 17.6312C6.80038 17.6382 6.76456 17.646 6.72874 17.6541L6.70479 17.6596C6.0773 17.8059 5.51441 18.1211 5.06652 18.5551C5.06241 18.5591 5.0582 18.563 5.05416 18.567C5.03124 18.5894 5.00882 18.6121 4.98656 18.6351C4.97295 18.6492 4.95944 18.6634 4.94604 18.6777C4.90373 18.7225 4.86277 18.7685 4.82321 18.8158C4.81293 18.828 4.80243 18.84 4.79231 18.8524C4.76239 18.8889 4.73319 18.9261 4.7047 18.9638C4.6971 18.9739 4.68966 18.9841 4.68217 18.9942C4.65702 19.0282 4.63246 19.0627 4.60856 19.0977C4.60315 19.1056 4.59763 19.1135 4.59232 19.1215C4.50136 19.2566 4.42003 19.3981 4.34896 19.5447L4.343 19.557C4.31681 19.6111 4.29203 19.6659 4.26868 19.7212H2.92309C2.47772 19.7212 2.11541 19.3589 2.11541 18.9136V15.6828C2.11541 15.2374 2.47772 14.8751 2.92309 14.8751H26.077C26.5223 14.8751 26.8846 15.2373 26.8846 15.6827V15.952Z" fill="#9CA3AF"/>
</g>
<defs>
<clipPath id="clip0_2167_71">
<rect width="28" height="28" fill="white" transform="translate(0.5)"/>
</clipPath>
</defs>
</svg>
