<svg width="28" height="28" viewBox="0 0 28 28" fill="none" xmlns="http://www.w3.org/2000/svg">
<path d="M8.02501 24.5062H3.54368V16.9377C3.54368 14.4628 5.55002 12.4564 8.02501 12.4564H18.4814C20.9564 12.4564 22.9628 14.4628 22.9628 16.9377V24.5062M11.0126 24.5062H24.4565V26" stroke="#9CA3AF" strokeWidth="1.49378" strokeMiterlimit="10" strokeLinecap="round" strokeLinejoin="round"/>
<path d="M15.4939 24.5062V15.444H19.9752V24.5062M18.4814 19.9253H19.9752M6.53123 15.444H12.5063V19.9253H6.53123V15.444Z" stroke="#9CA3AF" strokeWidth="1.49378" strokeMiterlimit="10" strokeLinecap="round" strokeLinejoin="round"/>
<path d="M9.51878 26C10.3438 26 11.0126 25.3312 11.0126 24.5062C11.0126 23.6812 10.3438 23.0125 9.51878 23.0125C8.69379 23.0125 8.02501 23.6812 8.02501 24.5062C8.02501 25.3312 8.69379 26 9.51878 26Z" stroke="#9CA3AF" strokeWidth="1.49378" strokeMiterlimit="10" strokeLinecap="round" strokeLinejoin="round"/>
<path d="M14.0001 4.98755C15.6501 4.98755 16.9877 3.64998 16.9877 2M16.9877 2V12.4564M16.9877 2C16.9877 3.64998 18.3252 4.98755 19.9752 4.98755" stroke="#9CA3AF" strokeWidth="1.49378" strokeMiterlimit="10" strokeLinecap="round" strokeLinejoin="round"/>
<path d="M14.0001 9.46888C15.6501 9.46888 16.9877 8.1313 16.9877 6.48133C16.9877 8.1313 18.3252 9.46888 19.9752 9.46888M5.03746 4.98755C6.68743 4.98755 8.02501 3.64998 8.02501 2M8.02501 2V12.4564M8.02501 2C8.02501 3.64998 9.36259 4.98755 11.0126 4.98755" stroke="#9CA3AF" strokeWidth="1.49378" strokeMiterlimit="10" strokeLinecap="round" strokeLinejoin="round"/>
<path d="M5.03746 9.46888C6.68743 9.46888 8.02501 8.1313 8.02501 6.48132C8.02501 8.1313 9.36259 9.46888 11.0126 9.46888" stroke="#9CA3AF" strokeWidth="1.49378" strokeMiterlimit="10" strokeLinecap="round" strokeLinejoin="round"/>
</svg>
