<svg width="29" height="28" viewBox="0 0 29 28" fill="none" xmlns="http://www.w3.org/2000/svg">
<path d="M25.7988 2C25.4104 2 25.0956 2.31487 25.0956 2.70326V5.01308H17.4629V4.9631C17.4283 4.03101 16.0906 4.03171 16.0564 4.9631V5.01308H12.9433V4.9631C12.9087 4.03101 11.571 4.03171 11.5368 4.9631V5.01308H3.90408V2.70326C3.86948 1.77116 2.53184 1.77186 2.49757 2.70326V25.3013C2.53217 26.2333 3.86981 26.2326 3.90408 25.3013V6.41955H11.5368V8.02612H8.4737C8.38135 8.02612 8.28991 8.04431 8.20459 8.07966C8.11927 8.11501 8.04175 8.16681 7.97645 8.23212L5.71666 10.4919C5.44426 10.7538 5.44426 11.2246 5.71666 11.4865L7.77049 13.5403V20.0284C7.77049 20.4168 8.08537 20.7317 8.47375 20.7317H20.526C20.9144 20.7317 21.2292 20.4168 21.2292 20.0284V13.5403L23.2831 11.4864C23.5555 11.2245 23.5555 10.7538 23.2831 10.4919L21.0233 8.23208C20.958 8.16677 20.8805 8.11496 20.7951 8.07961C20.7098 8.04427 20.6184 8.02607 20.526 8.02607H17.4629V6.41955H25.0956V25.3012C25.1302 26.2333 26.4678 26.2326 26.5021 25.3012V2.70321C26.5021 2.31482 26.1872 2 25.7988 2ZM12.9433 6.41955H16.0564V8.02612H12.9433V6.41955ZM11.4368 9.43263H13.0433V10.2359C13.0028 11.3003 11.4769 11.2995 11.4368 10.2359V9.43263ZM15.3031 13.249V19.3251H9.17696V13.249C9.17695 13.0625 9.10284 12.8836 8.97095 12.7517L7.20845 10.9892L8.76499 9.43268H10.0302V10.2359C10.1416 13.1643 14.3394 13.162 14.4498 10.2359V9.43268H15.7151L17.2716 10.9892L15.5091 12.7517C15.4438 12.817 15.392 12.8945 15.3566 12.9799C15.3213 13.0652 15.3031 13.1566 15.3031 13.249ZM20.2346 9.43263L21.7912 10.9892L20.0286 12.7517C19.8968 12.8835 19.8226 13.0624 19.8226 13.2489V19.3251H16.7096V13.5403L18.7634 11.4864C19.038 11.2118 19.038 10.7665 18.7634 10.4919L17.7041 9.43258L20.2346 9.43263Z" fill="#9CA3AF"/>
</svg>
