<svg width="28" height="28" viewBox="0 0 28 28" fill="none" xmlns="http://www.w3.org/2000/svg">
<path d="M15.2368 11.8343L11.2762 7.87366L8.65779 10.492L22.7839 24.618C23.2931 25.1273 24.1189 25.1273 24.6281 24.618L25.4022 23.8439C25.9115 23.3346 25.9115 22.5089 25.4022 21.9997L17.5036 14.1011" stroke="#9CA3AF" strokeWidth="1.50205" strokeMiterlimit="10" strokeLinecap="round" strokeLinejoin="round"/>
<path d="M10.986 3H9.30793L4.87082 7.43712L4.58798 8.82451L3.19648 9.11146L1.9335 10.3744L5.35443 13.7954L6.61741 12.5324L6.87205 11.1086L8.29169 10.858L11.5482 7.60149L11.6828 6.34327H14.3293C14.3293 4.49685 12.8325 3 10.986 3Z" stroke="#9CA3AF" strokeWidth="1.50205" strokeMiterlimit="10" strokeLinecap="round" strokeLinejoin="round"/>
<path d="M12.6507 14.4852L20.1542 6.98152L22.3562 9.18342L14.8527 16.6871L12.6507 14.4852Z" stroke="#9CA3AF" strokeWidth="1.50205" strokeMiterlimit="10" strokeLinecap="round" strokeLinejoin="round"/>
<path d="M5.1069 20.6978C4.13122 21.6735 4.13122 23.2554 5.1069 24.231C6.08258 25.2067 7.66445 25.2067 8.64008 24.231L13.4876 19.3835L9.95438 15.8503L5.1069 20.6978Z" stroke="#9CA3AF" strokeWidth="1.50205" strokeMiterlimit="10" strokeLinecap="round" strokeLinejoin="round"/>
<path d="M9.95419 15.8503L11.9816 13.8229L15.5148 17.356L13.4874 19.3834L9.95419 15.8503Z" stroke="#9CA3AF" strokeWidth="1.50205" strokeMiterlimit="10" strokeLinecap="round" strokeLinejoin="round"/>
<path d="M26.0664 5.3045L24.0334 3.27142L20.5483 4.99773L20.1574 6.98455L22.3533 9.18045L24.3402 8.78962L26.0664 5.3045Z" stroke="#9CA3AF" strokeWidth="1.50205" strokeMiterlimit="10" strokeLinecap="round" strokeLinejoin="round"/>
</svg>
