<svg width="28" height="28" viewBox="0 0 28 28" fill="none" xmlns="http://www.w3.org/2000/svg">
<path d="M23.9055 12.3624H23.0508V6.84888C23.0508 4.72658 21.3242 3 19.2019 3H8.7981C6.6758 3 4.94922 4.72663 4.94922 6.84888V12.3624H4.09457C2.68344 12.3624 1.5354 13.5103 1.5354 14.9215V20.3799C1.5354 21.7304 2.62295 22.8311 3.96818 22.8538V24.2741C4.00413 25.2424 5.39368 25.2417 5.42929 24.2741V22.8549H22.5171V24.2741C22.553 25.2424 23.9426 25.2417 23.9782 24.2741V22.8549H23.9897C25.3544 22.8549 26.4646 21.7446 26.4646 20.3799V14.9215C26.4646 13.5104 25.3166 12.3624 23.9055 12.3624ZM8.7981 4.4611H19.2019C20.5186 4.4611 21.5897 5.53228 21.5897 6.84888V12.5659C20.6741 12.9561 20.0305 13.865 20.0305 14.9215V16.6374C19.6057 16.3986 19.1265 16.2733 18.6391 16.2737H9.36092C8.87355 16.2733 8.39432 16.3986 7.96951 16.6374V14.9215C7.96951 13.865 7.32594 12.9561 6.41032 12.566V6.84888C6.41032 5.53224 7.48145 4.4611 8.7981 4.4611ZM7.96946 19.1263C7.96946 18.3591 8.59364 17.7349 9.36087 17.7349H18.6391C19.4063 17.7349 20.0305 18.3591 20.0305 19.1263V21.3938H7.96946V19.1263ZM2.9965 20.3799V14.9215C2.9965 14.316 3.48909 13.8235 4.09457 13.8235H5.41034C6.01582 13.8235 6.50841 14.316 6.50841 14.9215V21.3938H4.01041C3.45134 21.3938 2.9965 20.9389 2.9965 20.3799ZM25.0035 20.3799C25.0035 20.9389 24.5487 21.3938 23.9897 21.3938H21.4917V14.9215C21.4917 14.316 21.9843 13.8235 22.5897 13.8235H23.9055C24.511 13.8235 25.0036 14.316 25.0036 14.9215V20.3799H25.0035Z" fill="#9CA3AF"/>
<path d="M16.5187 9.72764C16.9222 9.72764 17.2493 9.40055 17.2493 8.99709C17.2135 8.02906 15.8238 8.02935 15.7882 8.99709C15.7882 9.40055 16.1152 9.72764 16.5187 9.72764ZM11.482 9.72764C11.8855 9.72764 12.2126 9.40055 12.2126 8.99709C12.1768 8.02906 10.7871 8.02935 10.7515 8.99709C10.7515 9.40055 11.0786 9.72764 11.482 9.72764ZM16.5187 13.3317C16.9222 13.3317 17.2493 13.0046 17.2493 12.6012C17.2135 11.6332 15.8238 11.6335 15.7882 12.6012C15.7882 13.0046 16.1152 13.3317 16.5187 13.3317ZM11.482 13.3317C11.8855 13.3317 12.2126 13.0046 12.2126 12.6012C12.1768 11.6332 10.7871 11.6335 10.7515 12.6012C10.7515 13.0046 11.0786 13.3317 11.482 13.3317Z" fill="#9CA3AF"/>
</svg>
