<svg width="40" height="40" viewBox="0 0 40 40" fill="none" xmlns="http://www.w3.org/2000/svg">
<path d="M21.6667 36.6666L20.6667 36.6668C20.6667 37.219 21.1144 37.6666 21.6667 37.6666V36.6666ZM29.1667 20L29.7214 19.1679C29.3855 18.944 28.9479 18.944 28.612 19.1679L29.1667 20ZM36.6667 36.6666V37.6666H37.6667V36.6666H36.6667ZM36.6667 25H37.6667V24.4648L37.2214 24.1679L36.6667 25ZM21.6651 25L21.1105 24.1679L20.665 24.4648L20.6651 25.0001L21.6651 25ZM35.6667 25V36.6666H37.6667V25H35.6667ZM36.6667 35.6666H21.6667V37.6666H36.6667V35.6666ZM22.6667 36.6665L22.6651 24.9998L20.6651 25.0001L20.6667 36.6668L22.6667 36.6665ZM22.2197 25.8321L29.7213 20.8321L28.612 19.1679L21.1105 24.1679L22.2197 25.8321ZM28.612 20.8321L36.112 25.832L37.2214 24.1679L29.7214 19.1679L28.612 20.8321Z" fill="#9CA3AF"/>
<path d="M29.1667 20.0001V3.33304L12.5 3.33311V36.6664" stroke="#9CA3AF" strokeWidth="2" stroke-linejoin="round"/>
<ellipse cx="5.83334" cy="23.3333" rx="2.5" ry="3.33333" stroke="#9CA3AF" strokeWidth="2"/>
<path d="M5.83334 26.667L5.83334 36.667" stroke="#9CA3AF" strokeWidth="2"/>
<path d="M3.33334 36.667H33.3333" stroke="#9CA3AF" strokeWidth="2"/>
<path d="M17.5 10H24.1667M17.5 15H24.1667" stroke="#9CA3AF" strokeWidth="2" stroke-linejoin="round"/>
<path d="M29.1667 36.6667L29.1667 30" stroke="#9CA3AF" strokeWidth="2" stroke-linejoin="round"/>
</svg>
