<svg width="32" height="32" viewBox="0 0 32 32" fill="none" xmlns="http://www.w3.org/2000/svg">
<path d="M29.3323 14.667C29.3212 18.1676 29.2173 20.0583 28.2486 21.4418C27.8471 22.0151 27.3485 22.5138 26.7751 22.9152C25.2255 24.0003 23.0393 24.0003 18.667 24.0003H13.3337C8.96135 24.0003 6.7752 24.0003 5.22553 22.9152C4.6522 22.5138 4.15353 22.0151 3.75208 21.4418C2.66699 19.8921 2.66699 17.706 2.66699 13.3337C2.66699 8.96135 2.66699 6.7752 3.75208 5.22553C4.15353 4.6522 4.6522 4.15353 5.22553 3.75208C6.7752 2.66699 8.96135 2.66699 13.3337 2.66699H15.3337" stroke="#030712" strokeWidth="2.2" stroke-linecap="round"/>
<path d="M18.667 8.00033C18.667 8.00033 20.0003 8.00033 21.3337 10.667C21.3337 10.667 25.569 4.00033 29.3337 2.66699" stroke="#030712" strokeWidth="2.2" stroke-linecap="round" stroke-linejoin="round"/>
<path d="M14.667 20H17.3337" stroke="#030712" strokeWidth="2.2" stroke-linecap="round" stroke-linejoin="round"/>
<path d="M16 24V29.3333" stroke="#030712" strokeWidth="2.2"/>
<path d="M10.667 29.334H21.3337" stroke="#030712" strokeWidth="2.2" stroke-linecap="round"/>
</svg>
