<svg width="28" height="30" viewBox="0 0 28 30" fill="none" xmlns="http://www.w3.org/2000/svg">
<path d="M13.9978 1.6665C9.9874 1.6665 7.38707 4.35849 4.31178 5.33971C3.06135 5.73868 2.43612 5.93816 2.1831 6.21937C1.93007 6.50058 1.85598 6.9115 1.70779 7.73335C0.122075 16.5278 3.58803 24.6585 11.8539 27.8231C12.742 28.1632 13.1861 28.3332 14.0021 28.3332C14.8182 28.3332 15.2622 28.1631 16.1503 27.8231C24.4156 24.6584 27.8783 16.5278 26.2921 7.73334C26.1439 6.91136 26.0697 6.50036 25.8167 6.21915C25.5636 5.93794 24.9384 5.73857 23.6881 5.33982C20.6116 4.3587 18.0083 1.6665 13.9978 1.6665Z" stroke="#1F2937" strokeWidth="2.2" stroke-linecap="round" stroke-linejoin="round"/>
<path d="M10 16.3333C10 16.3333 11.3333 16.3333 12.6667 19C12.6667 19 16.902 12.3333 20.6667 11" stroke="#1F2937" strokeWidth="2.2" stroke-linecap="round" stroke-linejoin="round"/>
</svg>
