<svg width="30" height="30" viewBox="0 0 30 30" fill="none" xmlns="http://www.w3.org/2000/svg">
<path d="M28.3323 13.667C28.3212 17.1676 28.2173 19.0583 27.2486 20.4418C26.8471 21.0151 26.3485 21.5138 25.7751 21.9152C24.2255 23.0003 22.0393 23.0003 17.667 23.0003H12.3337C7.96135 23.0003 5.7752 23.0003 4.22553 21.9152C3.6522 21.5138 3.15353 21.0151 2.75208 20.4418C1.66699 18.8921 1.66699 16.706 1.66699 12.3337C1.66699 7.96135 1.66699 5.7752 2.75208 4.22553C3.15353 3.6522 3.6522 3.15353 4.22553 2.75208C5.7752 1.66699 7.96135 1.66699 12.3337 1.66699H14.3337" stroke="#D855A0" strokeWidth="2.2" stroke-linecap="round"/>
<path d="M17.667 7.00033C17.667 7.00033 19.0003 7.00033 20.3337 9.66699C20.3337 9.66699 24.569 3.00033 28.3337 1.66699" stroke="#D855A0" strokeWidth="2.2" stroke-linecap="round" stroke-linejoin="round"/>
<path d="M13.667 19.0005H16.3337" stroke="#D855A0" strokeWidth="2.2" stroke-linecap="round" stroke-linejoin="round"/>
<path d="M15 23V28.3333" stroke="#D855A0" strokeWidth="2.2"/>
<path d="M9.66699 28.3335H20.3337" stroke="#D855A0" strokeWidth="2.2" stroke-linecap="round"/>
</svg>
