<svg width="20" height="16" viewBox="0 0 20 16" fill="none" xmlns="http://www.w3.org/2000/svg">
<g id="content">
<path id="Vector 7163" d="M1.66663 3L7.42748 6.26414C9.55129 7.46751 10.4486 7.46751 12.5724 6.26414L18.3333 3" stroke="#1F1C1E" strokeWidth="1.5" strokeLinejoin="round"/>
<path id="Vector" d="M1.67976 9.23001C1.73424 11.7846 1.76148 13.0619 2.70409 14.0081C3.6467 14.9543 4.95857 14.9873 7.58232 15.0532C9.19939 15.0938 10.8005 15.0938 12.4176 15.0532C15.0414 14.9873 16.3532 14.9543 17.2958 14.0081C18.2384 13.0619 18.2657 11.7846 18.3202 9.23001C18.3377 8.40861 18.3377 7.59206 18.3202 6.77065C18.2657 4.21604 18.2384 2.93874 17.2958 1.99254C16.3532 1.04635 15.0414 1.01339 12.4176 0.947466C10.8005 0.906836 9.19938 0.906834 7.58231 0.947461C4.95857 1.01338 3.64669 1.04634 2.70409 1.99253C1.76148 2.93872 1.73424 4.21603 1.67976 6.77064C1.66225 7.59205 1.66225 8.4086 1.67976 9.23001Z" stroke="#1F1C1E" strokeWidth="1.5" strokeLinejoin="round"/>
</g>
</svg>
