<svg width="113" height="28" viewBox="0 0 113 28" fill="none" xmlns="http://www.w3.org/2000/svg">
<path d="M15.5968 0.00982666H0V27.9798H6.52469V19.0264H15.5968C22.2402 19.0264 25.6626 16.0428 25.5826 10.3131V8.7206C25.5851 2.95471 22.2428 0.00982666 15.5968 0.00982666ZM19.0579 10.4344C19.0579 12.7417 18.0229 13.738 15.3981 13.738H6.52469V5.30339H15.3981C17.9842 5.30339 19.0579 6.25835 19.0579 8.60704V10.4344ZM50.4115 13.2992V13.1805C52.2414 12.3056 53.1576 10.8318 53.1576 8.80319V6.85456C53.1576 2.23978 50.4115 0.00982666 44.643 0.00982666H28.53L29.0875 3.71094C29.2476 4.82591 29.8025 5.30339 30.9974 5.30339H44.1268C45.9567 5.30339 46.6743 5.97961 46.6743 7.65207V8.68705C46.6743 10.517 46.0368 11.0744 44.1268 11.0744H34.1798L34.696 14.5768C34.856 15.6505 35.4109 16.0893 36.5259 16.0893H44.403C46.1942 16.0893 46.9504 16.8455 46.9504 18.6367V20.3479C46.9504 22.0978 46.3129 22.6965 44.403 22.6965H29.6812C28.4887 22.6965 27.9313 23.174 27.7712 24.289L27.2137 27.9901H44.7592C50.649 27.9514 53.4725 25.9202 53.4725 21.4241V18.3218C53.4751 15.8467 52.4814 14.2155 50.4115 13.2992ZM78.6602 13.2992V13.1805C80.4901 12.3056 81.4064 10.8318 81.4064 8.80319V6.85456C81.4064 2.23978 78.6602 0.00982666 72.8917 0.00982666H56.7787L57.3362 3.71094C57.4963 4.82591 58.0537 5.30339 59.2462 5.30339H72.3756C74.2055 5.30339 74.923 5.97961 74.923 7.65207V8.68705C74.923 10.517 74.2855 11.0744 72.3756 11.0744H62.4285L62.9447 14.5768C63.1047 15.6505 63.6596 16.0893 64.7746 16.0893H72.6517C74.4429 16.0893 75.1991 16.8455 75.1991 18.6367V20.3479C75.1991 22.0978 74.5616 22.6965 72.6517 22.6965H57.9299C56.7375 22.6965 56.18 23.174 56.0199 24.289L55.4625 27.9901H73.0079C78.8977 27.9514 81.7212 25.9202 81.7212 21.4241V18.3218C81.7238 15.8467 80.7301 14.2155 78.6602 13.2992ZM105.239 18.8303C104.522 17.9553 103.925 17.6378 102.733 17.6378V17.2791H103.37C108.821 17.1191 111.805 14.5329 111.725 9.44068V8.36701C111.725 2.75598 108.463 0.0124023 102.015 0.0124023H85.9411V27.9824H92.4658V5.30339H101.897C104.165 5.30339 105.159 6.17834 105.159 8.24828V9.99817C105.159 12.0268 104.243 12.9818 101.897 12.9818H96.2082V16.0067C96.2082 17.5191 96.3682 18.0766 96.9644 18.7915L103.649 26.8674C104.325 27.7423 105.002 27.9824 106.197 27.9824H113L105.239 18.8303Z" fill="url(#paint0_radial_2200_23)"/>
<defs>
<radialGradient id="paint0_radial_2200_23" cx="0" cy="0" r="1" gradientUnits="userSpaceOnUse" gradientTransform="translate(4.65917 1.30868) scale(108.401 108.401)">
<stop stop-color="#2B3990"/>
<stop offset="0.4198" stop-color="#130656"/>
<stop offset="0.4736" stop-color="#180957"/>
<stop offset="0.5456" stop-color="#270F5C"/>
<stop offset="0.6278" stop-color="#3C1864"/>
<stop offset="0.7177" stop-color="#582470"/>
<stop offset="0.8137" stop-color="#803480"/>
<stop offset="0.9135" stop-color="#B84893"/>
<stop offset="0.955" stop-color="#D7549F"/>
</radialGradient>
</defs>
</svg>
