<svg width="140" height="35" viewBox="0 0 140 35" fill="none" xmlns="http://www.w3.org/2000/svg">
<path d="M19.3235 0H0V34.6531H8.08369V23.5604H19.3235C27.5542 23.5604 31.7943 19.8639 31.6952 12.7651V10.7921C31.6984 3.64853 27.5574 0 19.3235 0ZM23.6115 12.9153C23.6115 15.7741 22.3293 17.0084 19.0772 17.0084H8.08369V6.5584H19.0772C22.2813 6.5584 23.6115 7.74154 23.6115 10.6514V12.9153ZM62.4567 16.4648V16.3177C64.7239 15.2337 65.859 13.4078 65.859 10.8944V8.48019C65.859 2.76278 62.4567 0 55.3099 0H35.347L36.0376 4.58545C36.2359 5.96684 36.9234 6.5584 38.4039 6.5584H54.6704C56.9376 6.5584 57.8265 7.39619 57.8265 9.46827V10.7505C57.8265 13.0177 57.0367 13.7084 54.6704 13.7084H42.3466L42.9862 18.0476C43.1844 19.3778 43.8719 19.9214 45.2533 19.9214H55.0126C57.2317 19.9214 58.1687 20.8583 58.1687 23.0775V25.1976C58.1687 27.3656 57.3788 28.1074 55.0126 28.1074H36.7731C35.2958 28.1074 34.6051 28.699 34.4068 30.0804L33.7161 34.6658H55.4538C62.7509 34.6179 66.2491 32.1013 66.2491 26.531V22.6874C66.2523 19.6208 65.0212 17.5999 62.4567 16.4648ZM97.4551 16.4648V16.3177C99.7223 15.2337 100.857 13.4078 100.857 10.8944V8.48019C100.857 2.76278 97.4551 0 90.3084 0H70.3454L71.036 4.58545C71.2343 5.96684 71.925 6.5584 73.4023 6.5584H89.6688C91.936 6.5584 92.8249 7.39619 92.8249 9.46827V10.7505C92.8249 13.0177 92.0351 13.7084 89.6688 13.7084H77.345L77.9846 18.0476C78.1828 19.3778 78.8703 19.9214 80.2517 19.9214H90.011C92.2301 19.9214 93.1671 20.8583 93.1671 23.0775V25.1976C93.1671 27.3656 92.3772 28.1074 90.011 28.1074H71.7715C70.2942 28.1074 69.6035 28.699 69.4052 30.0804L68.7145 34.6658H90.4522C97.7493 34.6179 101.248 32.1013 101.248 26.531V22.6874C101.251 19.6208 100.02 17.5999 97.4551 16.4648ZM130.385 23.3173C129.496 22.2333 128.757 21.84 127.28 21.84V21.3956H128.07C134.823 21.1973 138.519 17.9932 138.42 11.6842V10.354C138.42 3.40231 134.379 0.00319103 126.391 0.00319103H106.476V34.6563H114.559V6.5584H126.244C129.054 6.5584 130.286 7.64241 130.286 10.2069V12.3749C130.286 14.8883 129.15 16.0714 126.244 16.0714H119.196V19.8191C119.196 21.6929 119.394 22.3836 120.133 23.2694L128.415 33.2749C129.253 34.3589 130.09 34.6563 131.571 34.6563H140L130.385 23.3173Z" fill="url(#paint0_radial_2322_3331)"/>
<defs>
<radialGradient id="paint0_radial_2322_3331" cx="0" cy="0" r="1" gradientUnits="userSpaceOnUse" gradientTransform="translate(5.77242 1.60919) scale(134.303 134.303)">
<stop stop-color="#2B3990"/>
<stop offset="0.4198" stop-color="#130656"/>
<stop offset="0.4736" stop-color="#180957"/>
<stop offset="0.5456" stop-color="#270F5C"/>
<stop offset="0.6278" stop-color="#3C1864"/>
<stop offset="0.7177" stop-color="#582470"/>
<stop offset="0.8137" stop-color="#803480"/>
<stop offset="0.9135" stop-color="#B84893"/>
<stop offset="0.955" stop-color="#D7549F"/>
</radialGradient>
</defs>
</svg>
