<svg width="15" height="20" viewBox="0 0 15 20" fill="none" xmlns="http://www.w3.org/2000/svg">
<g id="Phone">
<path id="Rectangle 2268" d="M1.66663 7.50033C1.66663 4.75047 1.66663 3.37554 2.5209 2.52126C3.37517 1.66699 4.7501 1.66699 7.49996 1.66699C10.2498 1.66699 11.6247 1.66699 12.479 2.52126C13.3333 3.37554 13.3333 4.75047 13.3333 7.50033V12.5003C13.3333 15.2502 13.3333 16.6251 12.479 17.4794C11.6247 18.3337 10.2498 18.3337 7.49996 18.3337C4.7501 18.3337 3.37517 18.3337 2.5209 17.4794C1.66663 16.6251 1.66663 15.2502 1.66663 12.5003V7.50033Z" stroke="#1F1C1E" strokeWidth="1.5" strokeLinecap="round"/>
<path id="Vector 4483" d="M6.66663 15.834H8.33329" stroke="#1F1C1E" strokeWidth="1.5" strokeLinecap="round" strokeLinejoin="round"/>
<path id="Vector 4513" d="M5 1.66699L5.07417 2.11201C5.2349 3.0764 5.31527 3.5586 5.64599 3.85203C5.99098 4.15811 6.48012 4.16699 7.5 4.16699C8.51988 4.16699 9.00902 4.15811 9.35401 3.85203C9.68473 3.5586 9.7651 3.0764 9.92583 2.11201L10 1.66699" stroke="#1F1C1E" strokeWidth="1.5" strokeLinejoin="round"/>
</g>
</svg>
