 <svg
    xmlns="http://www.w3.org/2000/svg"
    width={150}
    height={39}
    fill="none"
    {...props}
  >
    <g clipPath="url(#a)">
      <g clipPath="url(#b)">
        <mask
          id="c"
          width={150}
          height={31}
          x={0}
          y={4}
          maskUnits="userSpaceOnUse"
          style={{
            maskType: "luminance",
          }}
        >
          <path fill="#fff" d="M149.522 4.3H.9v30.4h148.622V4.3Z" />
        </mask>
        <g mask="url(#c)">
          <path
            fill="#00B2E3"
            fillRule="evenodd"
            d="M23.235 6.896C22.15 5.195 20.157 4.3 17.481 4.3c-3.475 0-5.092 1.625-5.747 2.584-.941 1.347-1.017 2.917-1.017 4.53v5.658h-4.15v3.492h11.872v-3.492h-3.994v-5.658c0-.772.034-1.66.477-2.288.452-.684 1.338-1.052 2.559-1.052 1.216 0 2.102.364 2.558 1.052.266.397.422.984.465 1.748l.02.43h3.729l-.013-.464c-.02-1.127-.164-2.584-1.005-3.944Zm41.15-2.12v13.87c-1.085-1.025-2.723-1.967-5.113-1.967-2.259 0-4.328.807-5.843 2.276-1.66 1.626-2.534 3.923-2.534 6.676 0 2.795.887 5.138 2.559 6.772 1.507 1.482 3.576 2.297 5.822 2.297 2.356 0 4.007-.963 5.113-2.01v1.545h3.741V4.777h-3.745Zm.156 20.897c0 3.855-2.567 5.615-4.956 5.615-2.964 0-4.881-2.22-4.881-5.657 0-3.826 2.444-5.536 4.88-5.536 2.39-.004 4.957 1.744 4.957 5.578Zm-18.24-11.848a2.456 2.456 0 0 0 2.458-2.453A2.456 2.456 0 0 0 46.3 8.919a2.456 2.456 0 0 0-2.457 2.453 2.456 2.456 0 0 0 2.457 2.453ZM37.426 27c0 1.08 0 2.309-.688 3.204-.388.498-1.14 1.081-2.5 1.081-1.372 0-2.115-.587-2.499-1.072-.688-.895-.688-2.124-.688-3.205v-9.93H27.31v10.242c0 2.188.266 3.737 1.617 5.206 1.803 1.9 4.104 2.175 5.312 2.175 1.207 0 3.508-.287 5.311-2.187 1.351-1.47 1.605-3.02 1.605-5.206V17.064h-3.729v9.934Zm7.018-9.935h3.74v17.163h-3.74V17.064ZM10.239 29.78c.389-.574.452-1.347.465-2.035v-5.688h3.72V27.848c-.013 1.689-.199 2.985-1.018 4.155a5.522 5.522 0 0 1-2.048 1.777c-1.03.54-2.28.807-3.698.807-2.677 0-4.67-.895-5.755-2.597C.975 30.5.9 28.941.9 27.484v-1.258h3.74v1.258c0 .388 0 1.57.478 2.297.452.684 1.338 1.051 2.559 1.051 1.22 0 2.11-.363 2.563-1.051Zm10.273-15.956h3.741v20.398h-3.74V13.825Z"
            clipRule="evenodd"
          />
          <path
            fill="#2D333A"
            d="M79.5 17.067h4.447v3.146H79.5v8.478c0 .95.173 1.63.51 2.023.46.532 1.377.705 2.589.48.334-.058.638-.151.904-.274l.29-.135.123 3.196-.148.051a8.753 8.753 0 0 1-2.896.473c-1.63 0-2.896-.46-3.77-1.372-.87-.908-1.313-2.276-1.313-4.066v-8.854h-3.21v-3.146h3.21v-4.8h3.707v4.8h.004Zm15.661-.456a5.647 5.647 0 0 0-3.17.938 5.995 5.995 0 0 0-1.846 1.925l-.025-2.402h-3.534v17.154h3.745v-9.001c0-.684.093-1.347.274-1.968.178-.616.456-1.17.828-1.638a4.094 4.094 0 0 1 1.393-1.123c.558-.279 1.225-.418 1.985-.418.519 0 1.013.059 1.465.169l.253.063.16-3.505-.164-.042c-.376-.105-.832-.152-1.364-.152Zm33.132 13.102a4.522 4.522 0 0 1-1.634 1.28c-.663.312-1.406.472-2.221.472-.836 0-1.588-.16-2.234-.473a5.067 5.067 0 0 1-1.659-1.27 5.551 5.551 0 0 1-1.034-1.854 6.945 6.945 0 0 1-.359-2.225c0-.773.122-1.525.359-2.226a5.62 5.62 0 0 1 1.034-1.853 5.093 5.093 0 0 1 1.642-1.27c.638-.313 1.385-.474 2.217-.474.76 0 1.486.177 2.162.524.667.346 1.178.78 1.507 1.287l.131.199 2.745-2.22-.127-.166c-.701-.92-1.664-1.634-2.859-2.115-1.186-.477-2.394-.722-3.588-.722-1.292 0-2.508.22-3.623.65a8.55 8.55 0 0 0-2.909 1.845 8.376 8.376 0 0 0-1.917 2.859c-.456 1.102-.688 2.343-.688 3.682 0 1.363.236 2.613.705 3.72a8.422 8.422 0 0 0 1.938 2.841 8.774 8.774 0 0 0 2.909 1.828c1.115.43 2.343.65 3.656.65 1.364 0 2.605-.236 3.682-.705 1.085-.468 2.001-1.135 2.723-1.98l.136-.156-2.546-2.306-.148.178Zm12.536-4.835 8.06-7.81h-5.063l-6.823 7.063V4.801h-3.745v29.425h3.745v-8.444l7.343 8.444h5.176l-8.693-9.348Zm-31.532-7.798h3.728v10.235c0 2.187-.253 3.732-1.604 5.201-1.803 1.9-4.104 2.188-5.308 2.188-1.203 0-3.504-.275-5.307-2.175-1.351-1.47-1.613-3.015-1.613-5.202V17.088h3.737v9.927c0 1.08 0 2.31.684 3.2.388.486 1.127 1.073 2.499 1.073 1.36 0 2.112-.587 2.5-1.081.684-.895.684-2.12.684-3.2V17.08Z"
          />
        </g>
      </g>
    </g>
    <defs>
      <clipPath id="a">
        <path fill="#fff" d="M.9.5h148.2v38H.9z" />
      </clipPath>
      <clipPath id="b">
        <path fill="#fff" d="M.9 4.3h148.622v30.4H.9z" />
      </clipPath>
    </defs>
  </svg>