<svg width="206" height="35" viewBox="0 0 206 35" fill="none" xmlns="http://www.w3.org/2000/svg">
<g clip-path="url(#clip0_3044_47680)">
<path d="M17.1162 0.780273C18.3302 0.780273 19.4857 1.08039 20.5341 1.62217C18.7218 3.52747 17.4424 6.10998 17.0168 9.05227H9.0235C8.05865 9.05227 7.22683 10.0505 7.22683 11.2083V34.1323L0.333496 25.8685V11.1936C0.333496 5.44247 4.21866 0.780273 9.01125 0.780273H17.1162Z" fill="#2185D0"/>
<path d="M27.5398 13.3643C27.1274 16.2832 25.8762 18.8508 24.0927 20.7601C25.1288 21.2999 26.2684 21.5999 27.4645 21.5999L35.6798 21.5483C36.6447 21.5483 37.4024 22.5385 37.4024 23.6963C37.4024 24.8542 36.6447 25.8603 35.6798 25.8603H22.9932L29.8865 34.0792L35.6819 34.1323C40.4745 34.1323 44.3332 29.4475 44.3332 23.6963C44.3332 17.9453 40.4725 13.3643 35.6798 13.3643H27.5398Z" fill="#2185D0"/>
<path d="M36.0835 0.780273H27.4302C22.6045 0.780273 18.7621 5.48269 18.7491 11.1713C18.7463 12.3583 17.945 13.2933 17.039 13.3128L15.5047 13.3458C11.9716 13.4217 9.14062 16.8803 9.14062 21.1207C9.14062 23.183 9.82336 25.1609 11.0386 26.6193L17.3028 34.1323H27.101L17.5696 22.6946C17.2448 22.3049 17.4767 21.6185 17.9332 21.558C22.85 20.906 25.6678 16.3845 25.6797 11.1942C25.6825 9.98736 26.5063 9.04412 27.4269 9.04412H42.9527L36.0835 0.780273Z" fill="#2185D0"/>
<path d="M63.5339 17.231C64.1417 17.231 64.6771 17.1442 65.1402 16.9706C65.6105 16.7882 66.0012 16.5364 66.3123 16.2152C66.6307 15.8852 66.8695 15.4945 67.0286 15.043C67.1878 14.5915 67.2674 14.0923 67.2674 13.5452C67.2674 12.4339 66.9635 11.596 66.3557 11.0316C65.7479 10.4672 64.8363 10.1851 63.6207 10.1851H61.3198V17.231H63.5339ZM70.7188 26.8558H68.852C68.4685 26.8558 68.1863 26.6778 68.0054 26.3218L63.968 19.6535C63.845 19.4451 63.7111 19.2975 63.5664 19.2107C63.429 19.1152 63.2119 19.0674 62.9152 19.0674H61.3198V26.8558H59.2251V8.19238H63.6207C64.6047 8.19238 65.4549 8.31394 66.1712 8.55706C66.8875 8.79149 67.4772 9.13445 67.9403 9.58595C68.4106 10.0375 68.7579 10.5845 68.9822 11.227C69.2065 11.8608 69.3187 12.5728 69.3187 13.3629C69.3187 14.0228 69.2319 14.6393 69.0582 15.2123C68.8846 15.7854 68.6313 16.302 68.2985 16.7622C67.9729 17.2137 67.5713 17.6001 67.0938 17.9213C66.6235 18.2426 66.088 18.4857 65.4875 18.6507C65.7552 18.833 65.9867 19.0978 66.1821 19.4451L70.7188 26.8558Z" fill="#030712"/>
<path d="M74.9298 26.8558H72.8242V8.19238H74.9298V26.8558Z" fill="#030712"/>
<path d="M92.3822 17.5306C92.3822 18.9285 92.1977 20.2005 91.8287 21.3466C91.4597 22.4927 90.9387 23.4739 90.2658 24.29C89.5929 25.1062 88.7825 25.7401 87.8346 26.1916C86.894 26.6344 85.8521 26.8558 84.7089 26.8558H78.9023V8.19238H84.7089C85.8521 8.19238 86.894 8.41813 87.8346 8.86963C88.7825 9.31245 89.5929 9.94628 90.2658 10.7711C90.9387 11.5873 91.4597 12.5684 91.8287 13.7146C92.1977 14.8607 92.3822 16.1327 92.3822 17.5306ZM90.2224 17.5306C90.2224 16.3845 90.0921 15.3599 89.8317 14.4569C89.5712 13.5539 89.2022 12.7899 88.7246 12.1647C88.2471 11.5396 87.6682 11.062 86.9881 10.7321C86.3079 10.4021 85.5482 10.2372 84.7089 10.2372H81.0079V24.811H84.7089C85.5482 24.811 86.3079 24.646 86.9881 24.3161C87.6682 23.9862 88.2471 23.5129 88.7246 22.8965C89.2022 22.2713 89.5712 21.5073 89.8317 20.6043C90.0921 19.7013 90.2224 18.6767 90.2224 17.5306Z" fill="#030712"/>
<path d="M105.005 24.798L104.994 26.8558H95.4102V8.19238H104.994V10.2502H97.5157V16.4496H103.572V18.4292H97.5157V24.798H105.005Z" fill="#030712"/>
<path d="M112.254 17.231C112.862 17.231 113.397 17.1442 113.86 16.9706C114.331 16.7882 114.721 16.5364 115.033 16.2152C115.351 15.8852 115.59 15.4945 115.749 15.043C115.908 14.5915 115.988 14.0923 115.988 13.5452C115.988 12.4339 115.684 11.596 115.076 11.0316C114.468 10.4672 113.556 10.1851 112.341 10.1851H110.04V17.231H112.254ZM119.439 26.8558H117.572C117.189 26.8558 116.907 26.6778 116.726 26.3218L112.688 19.6535C112.565 19.4451 112.431 19.2975 112.287 19.2107C112.149 19.1152 111.932 19.0674 111.635 19.0674H110.04V26.8558H107.945V8.19238H112.341C113.325 8.19238 114.175 8.31394 114.891 8.55706C115.608 8.79149 116.197 9.13445 116.661 9.58595C117.131 10.0375 117.478 10.5845 117.702 11.227C117.927 11.8608 118.039 12.5728 118.039 13.3629C118.039 14.0228 117.952 14.6393 117.778 15.2123C117.605 15.7854 117.352 16.302 117.019 16.7622C116.693 17.2137 116.292 17.6001 115.814 17.9213C115.344 18.2426 114.808 18.4857 114.208 18.6507C114.475 18.833 114.707 19.0978 114.902 19.4451L119.439 26.8558Z" fill="#030712"/>
<path d="M129.5 11.1092C129.435 11.2394 129.363 11.3392 129.283 11.4087C129.211 11.4695 129.12 11.4999 129.012 11.4999C128.889 11.4999 128.744 11.4261 128.578 11.2785C128.411 11.1309 128.201 10.9702 127.948 10.7966C127.702 10.6142 127.402 10.4493 127.047 10.3017C126.7 10.1541 126.277 10.0803 125.778 10.0803C125.307 10.0803 124.891 10.1584 124.529 10.3147C124.175 10.4623 123.875 10.6663 123.629 10.9268C123.39 11.1873 123.209 11.4955 123.086 11.8515C122.963 12.1988 122.901 12.5765 122.901 12.9846C122.901 13.5056 123.006 13.9397 123.216 14.287C123.433 14.6256 123.715 14.9165 124.063 15.1596C124.417 15.4027 124.815 15.6155 125.257 15.7978C125.705 15.9715 126.161 16.1538 126.624 16.3448C127.094 16.5358 127.55 16.7529 127.992 16.996C128.44 17.2304 128.838 17.53 129.185 17.8947C129.54 18.2593 129.822 18.7065 130.032 19.2361C130.249 19.7658 130.358 20.417 130.358 21.1897C130.358 22.0059 130.242 22.7743 130.01 23.495C129.779 24.207 129.439 24.8278 128.99 25.3574C128.549 25.8871 128.002 26.3038 127.351 26.6077C126.707 26.9116 125.973 27.0636 125.148 27.0636C124.135 27.0636 123.216 26.8465 122.391 26.4124C121.566 25.9695 120.861 25.3748 120.275 24.6281L120.883 23.4299C120.941 23.3344 121.009 23.2562 121.089 23.1954C121.176 23.126 121.27 23.0912 121.371 23.0912C121.465 23.0912 121.57 23.139 121.686 23.2345C121.809 23.3213 121.946 23.4342 122.098 23.5731C122.25 23.712 122.424 23.864 122.619 24.029C122.815 24.1939 123.035 24.3459 123.281 24.4848C123.535 24.6237 123.82 24.7409 124.139 24.8365C124.457 24.9233 124.815 24.9667 125.213 24.9667C125.712 24.9667 126.157 24.8842 126.548 24.7192C126.939 24.5543 127.268 24.3242 127.536 24.029C127.811 23.7251 128.021 23.3647 128.165 22.948C128.31 22.5312 128.382 22.0667 128.382 21.5544C128.382 20.99 128.274 20.5299 128.057 20.1739C127.847 19.8092 127.568 19.5053 127.221 19.2622C126.874 19.0191 126.476 18.815 126.027 18.6501C125.579 18.4764 125.123 18.3027 124.66 18.1291C124.197 17.9468 123.741 17.7384 123.292 17.5039C122.844 17.2695 122.446 16.9656 122.098 16.5923C121.751 16.2189 121.469 15.7544 121.252 15.1987C121.042 14.6343 120.937 13.9397 120.937 13.1149C120.937 12.455 121.042 11.8168 121.252 11.2003C121.469 10.5839 121.78 10.0368 122.185 9.5593C122.598 9.08176 123.1 8.69972 123.694 8.41319C124.294 8.12666 124.982 7.9834 125.756 7.9834C126.624 7.9834 127.413 8.14837 128.122 8.47831C128.838 8.80825 129.468 9.2858 130.01 9.91095L129.5 11.1092Z" fill="#030712"/>
<path d="M146.833 11.1092C146.768 11.2394 146.696 11.3392 146.616 11.4087C146.544 11.4695 146.453 11.4999 146.345 11.4999C146.222 11.4999 146.077 11.4261 145.911 11.2785C145.744 11.1309 145.534 10.9702 145.281 10.7966C145.035 10.6142 144.735 10.4493 144.38 10.3017C144.033 10.1541 143.61 10.0803 143.111 10.0803C142.64 10.0803 142.224 10.1584 141.862 10.3147C141.508 10.4623 141.208 10.6663 140.962 10.9268C140.723 11.1873 140.542 11.4955 140.419 11.8515C140.296 12.1988 140.234 12.5765 140.234 12.9846C140.234 13.5056 140.339 13.9397 140.549 14.287C140.766 14.6256 141.048 14.9165 141.396 15.1596C141.75 15.4027 142.148 15.6155 142.59 15.7978C143.038 15.9715 143.494 16.1538 143.957 16.3448C144.427 16.5358 144.883 16.7529 145.325 16.996C145.773 17.2304 146.171 17.53 146.519 17.8947C146.873 18.2593 147.155 18.7065 147.365 19.2361C147.582 19.7658 147.691 20.417 147.691 21.1897C147.691 22.0059 147.575 22.7743 147.343 23.495C147.112 24.207 146.772 24.8278 146.323 25.3574C145.882 25.8871 145.335 26.3038 144.684 26.6077C144.04 26.9116 143.306 27.0636 142.481 27.0636C141.468 27.0636 140.549 26.8465 139.724 26.4124C138.899 25.9695 138.194 25.3748 137.608 24.6281L138.216 23.4299C138.274 23.3344 138.342 23.2562 138.422 23.1954C138.509 23.126 138.603 23.0912 138.704 23.0912C138.798 23.0912 138.903 23.139 139.019 23.2345C139.142 23.3213 139.279 23.4342 139.431 23.5731C139.583 23.712 139.757 23.864 139.952 24.029C140.148 24.1939 140.368 24.3459 140.614 24.4848C140.868 24.6237 141.153 24.7409 141.472 24.8365C141.79 24.9233 142.148 24.9667 142.546 24.9667C143.045 24.9667 143.49 24.8842 143.881 24.7192C144.272 24.5543 144.601 24.3242 144.869 24.029C145.144 23.7251 145.354 23.3647 145.498 22.948C145.643 22.5312 145.715 22.0667 145.715 21.5544C145.715 20.99 145.607 20.5299 145.39 20.1739C145.18 19.8092 144.901 19.5053 144.554 19.2622C144.207 19.0191 143.809 18.815 143.36 18.6501C142.912 18.4764 142.456 18.3027 141.993 18.1291C141.53 17.9468 141.074 17.7384 140.625 17.5039C140.177 17.2695 139.779 16.9656 139.431 16.5923C139.084 16.2189 138.802 15.7544 138.585 15.1987C138.375 14.6343 138.27 13.9397 138.27 13.1149C138.27 12.455 138.375 11.8168 138.585 11.2003C138.802 10.5839 139.113 10.0368 139.518 9.5593C139.931 9.08176 140.433 8.69972 141.027 8.41319C141.627 8.12666 142.315 7.9834 143.089 7.9834C143.957 7.9834 144.746 8.14837 145.455 8.47831C146.171 8.80825 146.801 9.2858 147.343 9.91095L146.833 11.1092Z" fill="#030712"/>
<path d="M163.254 8.19238V26.8558H161.148V18.3641H152.759V26.8558H150.653V8.19238H152.759V16.5147H161.148V8.19238H163.254Z" fill="#030712"/>
<path d="M175.486 19.927L173.044 12.334C172.972 12.1083 172.896 11.8478 172.816 11.5526C172.737 11.2487 172.661 10.9274 172.588 10.5888C172.436 11.2921 172.281 11.8782 172.122 12.347L169.68 19.927H175.486ZM179.871 26.8558H178.243C178.055 26.8558 177.903 26.7993 177.787 26.6865C177.671 26.5736 177.584 26.4303 177.527 26.2567L176.072 21.7504H169.093L167.639 26.2567C167.596 26.413 167.513 26.5519 167.39 26.6734C167.267 26.795 167.115 26.8558 166.934 26.8558H165.306L171.525 8.19238H173.652L179.871 26.8558Z" fill="#030712"/>
<path d="M186.231 17.231C186.838 17.231 187.374 17.1442 187.837 16.9706C188.307 16.7882 188.698 16.5364 189.009 16.2152C189.327 15.8852 189.566 15.4945 189.725 15.043C189.885 14.5915 189.964 14.0923 189.964 13.5452C189.964 12.4339 189.66 11.596 189.053 11.0316C188.445 10.4672 187.533 10.1851 186.317 10.1851H184.017V17.231H186.231ZM193.416 26.8558H191.549C191.165 26.8558 190.883 26.6778 190.702 26.3218L186.665 19.6535C186.542 19.4451 186.408 19.2975 186.263 19.2107C186.126 19.1152 185.909 19.0674 185.612 19.0674H184.017V26.8558H181.922V8.19238H186.317C187.302 8.19238 188.152 8.31394 188.868 8.55706C189.584 8.79149 190.174 9.13445 190.637 9.58595C191.107 10.0375 191.455 10.5845 191.679 11.227C191.903 11.8608 192.015 12.5728 192.015 13.3629C192.015 14.0228 191.929 14.6393 191.755 15.2123C191.581 15.7854 191.328 16.302 190.995 16.7622C190.67 17.2137 190.268 17.6001 189.791 17.9213C189.32 18.2426 188.785 18.4857 188.184 18.6507C188.452 18.833 188.683 19.0978 188.879 19.4451L193.416 26.8558Z" fill="#030712"/>
<path d="M205.115 24.798L205.104 26.8558H195.521V8.19238H205.104V10.2502H197.627V16.4496H203.683V18.4292H197.627V24.798H205.115Z" fill="#030712"/>
</g>
<defs>
<clipPath id="clip0_3044_47680">
<rect width="205.333" height="33.6" fill="white" transform="translate(0.333496 0.700195)"/>
</clipPath>
</defs>
</svg>
