<svg width="158" height="39" viewBox="0 0 158 39" fill="none" xmlns="http://www.w3.org/2000/svg">
<g clip-path="url(#clip0_3044_47701)">
<g clip-path="url(#clip1_3044_47701)">
<path fill-rule="evenodd" clip-rule="evenodd" d="M0.501953 19.418C0.501953 28.2004 7.65028 35.3361 16.4482 35.3361C25.2463 35.3361 32.3946 28.2004 32.3946 19.418C32.3946 10.6357 25.2463 3.5 16.4482 3.5C7.65028 3.5 0.501953 10.6357 0.501953 19.418ZM2.63966 19.418C2.63966 11.8554 8.81045 5.63456 16.4476 5.63456C24.0847 5.69555 30.1944 11.8554 30.2555 19.418C30.2555 19.5561 30.2534 19.6938 30.2494 19.8309C28.9221 20.0136 27.6552 20.6828 26.7114 21.6746L26.6502 21.7356C26.0634 22.3214 25.3515 22.6907 24.6069 22.8437C24.9934 17.0252 22.093 11.4424 16.9977 8.37911L16.4479 8.01318L15.898 8.37911C10.8631 11.4409 7.91131 17.0199 8.28878 22.8353C7.48735 22.6878 6.72381 22.2997 6.12169 21.6746C5.18733 20.6928 3.9759 20.0666 2.64669 19.8596C2.64201 19.713 2.63966 19.5657 2.63966 19.418ZM16.4479 10.5747C19.6009 12.7026 21.6888 15.9905 22.2891 19.6186C21.0891 17.2543 19.3025 15.2168 17.0598 13.6851L16.4488 13.2582L15.8378 13.6851C13.618 15.2012 11.8449 17.2131 10.6453 19.5467C11.2665 15.947 13.3156 12.6885 16.4479 10.5747ZM12.0936 21.5051C14.4887 19.1725 18.2768 19.168 20.7238 21.4916L20.8074 21.575C19.8814 19.3282 18.3931 17.3593 16.4488 15.8807C14.5248 17.344 13.0129 19.2874 12.0936 21.5051ZM16.4476 33.2014C23.1697 33.2014 28.7558 28.4292 29.9979 22.087C29.3444 22.2799 28.7424 22.6355 28.2388 23.1383C27.139 24.4801 25.4895 25.1509 23.7788 25.1509C22.068 25.1509 20.4795 24.4801 19.3186 23.2603L19.2576 23.1383C17.669 21.5526 15.1029 21.5526 13.5755 23.1383L13.5144 23.1993C11.1317 25.6388 7.22144 25.7608 4.77755 23.3823L4.59427 23.1993C4.14477 22.7132 3.55749 22.3647 2.91689 22.1677C4.19708 28.4316 9.76017 33.2014 16.4476 33.2014ZM41.9866 8.07417V17.0395H42.0477C42.231 16.7955 42.4143 16.5516 42.6587 16.3686C42.903 16.1247 43.2085 15.9417 43.5751 15.7587C44.4305 15.2708 45.408 15.0269 46.3245 15.0879C48.0352 15.0879 49.6237 15.7587 50.7846 17.0395C51.3344 17.6494 51.7621 18.3812 52.0676 19.1741C52.3731 20.0279 52.5564 20.8818 52.4953 21.7966C52.4953 22.7114 52.3731 23.5653 52.0676 24.4191C51.8232 25.212 51.3956 25.9438 50.8456 26.5538C50.2958 27.1636 49.6237 27.6515 48.8906 28.0174C48.0963 28.3834 47.1799 28.5663 46.2634 28.5663C45.408 28.5663 44.4916 28.3834 43.6973 27.9564C42.903 27.5906 42.2921 26.9806 41.8644 26.2488H41.8033V28.1395H38.7485V8.01318L41.9866 8.07417ZM49.3186 21.7356C49.3186 21.2477 49.2576 20.7598 49.0743 20.2719C48.9521 19.784 48.7076 19.3571 48.4022 18.9302C48.0967 18.5642 47.7301 18.1983 47.2414 18.0153C46.7526 17.7714 46.2027 17.6494 45.5917 17.6494C45.0419 17.6494 44.4919 17.7714 44.0032 18.0153C43.5755 18.2593 43.1478 18.5642 42.8424 18.9911C42.5369 19.3571 42.2314 19.845 42.1092 20.3329C41.9259 20.8208 41.8648 21.3087 41.8648 21.7966C41.8648 22.2845 41.9259 22.7724 42.1092 23.2603C42.2925 23.7482 42.5369 24.1752 42.8424 24.6021C43.1478 24.9681 43.5755 25.3339 44.0032 25.517C45.0419 26.0048 46.2027 26.0048 47.1802 25.517C47.6079 25.273 48.0356 24.9681 48.3411 24.5411C48.6466 24.1142 48.891 23.6873 49.0131 23.1994C49.2576 22.7724 49.3186 22.2845 49.3186 21.7356ZM54.2682 18.9911C53.9016 19.845 53.7183 20.8208 53.7183 21.7356C53.7183 22.7114 53.9016 23.6262 54.2682 24.4801C54.5736 25.2729 55.1236 26.0048 55.7345 26.6147C56.3455 27.2246 57.1398 27.7125 57.934 28.0174C59.7058 28.6883 61.5998 28.6883 63.3716 28.0174C64.1659 27.7125 64.9602 27.2246 65.5711 26.6147C66.1821 26.0048 66.6709 25.2729 67.0374 24.4801C67.404 23.6262 67.5873 22.7114 67.5873 21.7356C67.5873 20.8208 67.404 19.845 67.0374 18.9911C66.7319 18.1983 66.1821 17.4664 65.5711 16.8565C64.9602 16.2466 64.1659 15.8197 63.3716 15.5148C61.5998 14.9049 59.7058 14.9049 57.934 15.5148C57.1398 15.8197 56.3455 16.2466 55.7345 16.8565C55.1236 17.4664 54.6348 18.1983 54.2682 18.9911ZM57.2013 23.1993C57.018 22.7114 56.9569 22.2235 56.9569 21.7356C56.9569 21.2477 57.018 20.7598 57.2013 20.2719C57.3235 19.784 57.5679 19.2961 57.8734 18.9301C58.1789 18.5642 58.6065 18.2593 59.0342 18.0153C60.0729 17.5274 61.2948 17.5274 62.3334 18.0153C62.8222 18.1983 63.1888 18.5642 63.4943 18.9301C63.7998 19.3571 64.0441 19.784 64.1664 20.2719C64.3496 20.7598 64.4108 21.2477 64.4108 21.7356C64.4108 22.2235 64.2886 22.7114 64.1664 23.1993C64.0441 23.6872 63.7998 24.1142 63.4943 24.5411C63.1888 24.9681 62.7612 25.273 62.3334 25.517C61.2948 26.0048 60.0729 26.0048 59.0342 25.517C58.5455 25.273 58.1789 24.9681 57.8734 24.5411C57.5679 24.1142 57.3235 23.6873 57.2013 23.1993ZM77.3006 26.5537H77.2393C76.873 27.1635 76.3229 27.6515 75.7122 27.9564C74.9789 28.3223 74.1237 28.5053 73.2679 28.5053C72.7185 28.5053 72.1683 28.4443 71.6795 28.3223C71.1294 28.2003 70.5799 27.9564 70.1523 27.6515C69.6635 27.3465 69.2965 26.9196 68.9915 26.4317C68.6858 25.8828 68.5025 25.2119 68.5025 24.541C68.4414 23.6872 68.7471 22.8943 69.2965 22.2235C69.9079 21.6136 70.5799 21.1867 71.3738 20.9427C72.2902 20.6378 73.2679 20.3938 74.1843 20.3328C75.2233 20.2109 76.2616 20.2109 77.2393 20.2109V19.9059C77.3006 19.174 76.9336 18.5032 76.3842 18.1372C75.7728 17.7713 75.0402 17.5274 74.3069 17.5883C73.6349 17.5883 72.9629 17.7103 72.3515 18.0153C71.802 18.2592 71.2519 18.6252 70.8243 19.0521L69.1746 17.1004C69.9079 16.4296 70.7631 15.8807 71.6795 15.5757C72.5959 15.2708 73.5736 15.0878 74.5513 15.0878C75.529 15.0268 76.4454 15.2098 77.3619 15.5757C78.0339 15.8197 78.6446 16.2466 79.1334 16.7955C79.561 17.2834 79.8667 17.8933 80.0499 18.5032C80.233 19.1131 80.2943 19.7839 80.2943 20.3938V28.2003H77.3619V26.5537H77.3006ZM77.2393 22.3454H76.506C76.0172 22.3454 75.4677 22.3454 74.8563 22.4064C74.3069 22.4674 73.818 22.5284 73.2679 22.7114C72.8403 22.8334 72.4128 23.0163 72.0458 23.3213C71.7408 23.6262 71.5569 23.9921 71.5569 24.48C71.5569 24.724 71.6182 25.0289 71.7408 25.2119C71.8626 25.3949 72.0458 25.5778 72.2902 25.6998C72.5346 25.8218 72.7791 25.9438 73.0235 25.9438C73.2679 26.0048 73.5736 26.0048 73.818 26.0048C74.7345 26.0657 75.6509 25.7608 76.3229 25.1509C76.9336 24.48 77.2393 23.6262 77.178 22.7724L77.2393 22.3454ZM81.3326 17.8933V15.4537H83.593V11.7334H86.7086V15.4537H89.8861V18.0153H86.7086V23.9311C86.7086 24.4191 86.7699 24.907 87.0143 25.3339C87.32 25.7608 87.8694 26.0048 88.3583 25.8828C88.6027 25.8828 88.8471 25.8828 89.0303 25.8218C89.1528 25.7913 89.2597 25.7608 89.3666 25.7303C89.4735 25.6998 89.5804 25.6693 89.703 25.6388L89.8248 28.1394C89.5191 28.2613 89.1528 28.3223 88.7859 28.3833C88.4196 28.4443 88.0533 28.4443 87.6863 28.4443C86.953 28.4443 86.281 28.3223 85.609 28.0784C85.1202 27.8954 84.6926 27.5295 84.3263 27.1026C84.0206 26.6756 83.8374 26.1877 83.7149 25.6388C83.593 25.0899 83.5317 24.48 83.5317 23.8702V17.8933H81.3326ZM98.3185 17.8323C98.7467 18.0763 99.1743 18.3812 99.4793 18.8082L101.557 16.9175C101.007 16.2466 100.274 15.7587 99.4793 15.4538C98.6242 15.1488 97.7077 14.9659 96.7913 14.9659C96.1806 14.9659 95.5692 15.0269 94.9585 15.2098C94.3477 15.3318 93.7976 15.5758 93.3088 15.9417C92.8199 16.3076 92.4536 16.7345 92.1479 17.2225C91.8422 17.7713 91.7203 18.4422 91.7203 19.0521C91.7203 19.601 91.7816 20.0889 92.026 20.5768C92.2092 21.0037 92.5149 21.3697 92.8812 21.6136C93.2475 21.9186 93.6751 22.1015 94.1033 22.2845C94.5922 22.4675 95.0197 22.5894 95.5086 22.7114C96.2412 22.8334 96.9745 23.0773 97.7077 23.3823C98.1966 23.5653 98.441 24.0532 98.441 24.5411C98.441 24.785 98.3797 25.029 98.2579 25.2729C98.1353 25.5169 97.9522 25.6389 97.769 25.7608C97.5246 25.8828 97.3414 25.9438 97.097 26.0048C96.9139 26.0658 96.6694 26.0658 96.425 26.0658C95.753 26.1268 95.1416 25.9438 94.5309 25.6389C93.9808 25.3339 93.4919 24.968 93.1256 24.4801L91.0483 26.4317C91.6591 27.1026 92.4536 27.6515 93.37 27.9564C94.3477 28.3224 95.3248 28.5053 96.3025 28.5053C96.9745 28.5053 97.6465 28.3834 98.3185 28.2614C98.9299 28.1394 99.5406 27.8954 100.029 27.5295C100.518 27.1636 100.885 26.7367 101.19 26.1878C101.496 25.5169 101.618 24.846 101.618 24.1751C101.618 23.6262 101.496 23.0773 101.252 22.5894C101.007 22.1625 100.701 21.7966 100.274 21.4916C99.8463 21.2477 99.4187 21.0037 98.9299 20.8208C98.441 20.6378 97.9522 20.5158 97.4633 20.3939C96.73 20.2719 96.058 20.0279 95.386 19.784C94.8972 19.662 94.6528 19.2351 94.6528 18.7472C94.5922 18.3202 94.8359 17.8933 95.2642 17.7104C95.6917 17.5274 96.1806 17.4054 96.6694 17.4054C97.2802 17.4054 97.8303 17.5274 98.3185 17.8323ZM115.609 22.4064V21.9795C115.609 20.9427 115.426 19.9059 115.12 18.9301C114.876 18.1372 114.387 17.4054 113.837 16.7955C113.288 16.2466 112.616 15.8197 111.882 15.5147C111.088 15.2098 110.294 15.0878 109.438 15.0878C108.522 15.0878 107.605 15.2708 106.75 15.5757C105.162 16.1856 103.818 17.4664 103.206 19.1131C102.84 20.0279 102.657 20.9427 102.657 21.9185C102.657 22.8944 102.84 23.8092 103.206 24.724C103.573 25.5169 104.062 26.1877 104.673 26.7976C105.284 27.4075 106.017 27.8344 106.811 28.1394C107.667 28.5053 108.644 28.6273 109.561 28.6273C111.944 28.6273 113.776 27.7734 115.059 26.0658L112.921 24.3581C112.616 24.846 112.127 25.2729 111.577 25.5778C110.966 25.8828 110.233 26.0048 109.561 26.0048C109.072 26.0048 108.644 25.9438 108.217 25.7608C107.788 25.5778 107.422 25.3949 107.056 25.0899C106.75 24.846 106.444 24.4801 106.261 24.1141C106.078 23.6872 105.895 23.2603 105.895 22.8334H115.609V22.4064ZM112.249 19.357C112.371 19.723 112.433 20.0889 112.433 20.5158H105.895C105.956 19.662 106.323 18.8691 106.995 18.3202C107.667 17.7713 108.522 17.4664 109.439 17.4664C109.928 17.4664 110.355 17.5274 110.783 17.7103C111.455 18.0153 112.005 18.6252 112.249 19.357ZM115.914 17.8933V15.4537H118.174V11.7334H121.29V15.4537H124.283V18.0153H121.29V23.9311C121.29 24.4191 121.351 24.907 121.595 25.3339C121.901 25.7608 122.451 26.0048 122.939 25.8828C123.184 25.8828 123.428 25.8828 123.611 25.8218C123.734 25.7913 123.841 25.7608 123.948 25.7303C124.055 25.6998 124.162 25.6693 124.283 25.6388L124.406 28.1394C124.1 28.2613 123.734 28.3223 123.367 28.3833C123.001 28.4443 122.634 28.4443 122.267 28.4443C121.534 28.4443 120.862 28.3223 120.19 28.0784C119.701 27.8954 119.274 27.5295 118.907 27.1026C118.602 26.6756 118.419 26.1877 118.296 25.6388C118.174 25.0899 118.113 24.48 118.113 23.8702V17.8933H115.914ZM124.467 17.8933V15.4537H126.728V11.7334H129.905V15.4537H133.082V18.0153H129.905V23.9312C129.905 24.4191 129.966 24.907 130.211 25.3339C130.516 25.7608 131.066 26.0048 131.555 25.8828C131.799 25.8828 132.044 25.8828 132.227 25.8218C132.349 25.7913 132.456 25.7608 132.563 25.7304L132.563 25.7303C132.67 25.6998 132.777 25.6693 132.899 25.6388L133.021 28.1394C132.716 28.2613 132.349 28.3223 131.982 28.3833C131.616 28.4443 131.249 28.4443 130.883 28.4443C130.15 28.4443 129.478 28.3223 128.806 28.0784C128.317 27.8954 127.889 27.5295 127.522 27.1026C127.217 26.6756 127.033 26.1877 126.911 25.6388C126.789 25.0899 126.728 24.48 126.728 23.8702V17.8933H124.467ZM147.256 22.4064V21.9795C147.256 20.9427 147.072 19.9059 146.706 18.9301C146.461 18.1372 145.973 17.4054 145.423 16.7955C144.873 16.2466 144.201 15.8197 143.468 15.5147C142.673 15.2098 141.879 15.0878 141.024 15.0878C140.108 15.0878 139.191 15.2708 138.335 15.5757C136.747 16.1856 135.403 17.4664 134.792 19.1131C134.425 20.0279 134.242 20.9427 134.242 21.9185C134.242 22.8944 134.425 23.8092 134.792 24.724C135.159 25.5169 135.647 26.1877 136.258 26.7976C136.87 27.4075 137.602 27.8344 138.397 28.1394C139.252 28.5053 140.23 28.6273 141.146 28.6273C143.529 28.6273 145.362 27.7734 146.645 26.0658L144.507 24.3581C144.201 24.846 143.712 25.2729 143.162 25.5778C142.551 25.8828 141.818 26.0048 141.146 26.0048C140.657 26.0048 140.23 25.9438 139.802 25.7608C139.374 25.5778 139.007 25.3949 138.641 25.0899C137.969 24.541 137.542 23.6872 137.48 22.8334H147.256V22.4064ZM143.835 19.357C143.957 19.723 144.018 20.0889 144.018 20.5158H137.481C137.542 19.662 137.909 18.8691 138.581 18.3202C139.253 17.7713 140.108 17.4664 141.024 17.4664C141.513 17.4664 141.941 17.5274 142.368 17.7103C143.041 18.0153 143.59 18.6252 143.835 19.357ZM152.206 15.4537H149.151L149.212 28.1393H152.389V21.3086C152.389 21.0037 152.45 20.6988 152.511 20.3938C152.633 19.9669 152.756 19.601 153 19.235C153.245 18.8081 153.611 18.5032 154.039 18.2592C154.589 18.0153 155.199 17.8933 155.811 17.8933H156.238C156.33 17.9238 156.422 17.939 156.514 17.9543C156.605 17.9695 156.697 17.9848 156.788 18.0153V15.0878C156.666 15.0268 156.544 15.0268 156.422 15.0268H155.994C155.199 14.9658 154.406 15.2098 153.734 15.6977C153.122 16.1856 152.573 16.7955 152.267 17.5273H152.206V15.4537Z" fill="#0A4195"/>
</g>
</g>
<defs>
<clipPath id="clip0_3044_47701">
<rect width="156.8" height="38.4" fill="white" transform="translate(0.399902 0.300781)"/>
</clipPath>
<clipPath id="clip1_3044_47701">
<rect width="156.596" height="32" fill="white" transform="translate(0.501953 3.50098)"/>
</clipPath>
</defs>
</svg>
