<svg width="144" height="49" viewBox="0 0 144 49" fill="none" xmlns="http://www.w3.org/2000/svg">
<g clip-path="url(#clip0_3044_47708)">
<g clip-path="url(#clip1_3044_47708)">
<path d="M26.1043 21.7618C25.775 18.8918 24.5012 16.2126 22.4834 14.1455C22.4435 14.1056 22.4058 14.0612 22.3637 14.0191C22.1421 13.7975 21.9206 13.5892 21.6812 13.3876C19.5278 11.5198 16.8228 10.4071 13.9785 10.2188L14.4904 12.3904C16.4156 12.6324 18.2419 13.3819 19.7822 14.5621L17.6348 15.8916C16.8418 15.4027 15.9754 15.0443 15.0688 14.8302L15.6139 17.1348L15.6494 17.2877V17.3099C16.7574 17.7844 17.7117 18.5578 18.4055 19.5436C19.0994 20.5293 19.5054 21.6887 19.5783 22.8918H26.184C26.1774 22.5151 26.1486 22.1385 26.1043 21.7618ZM21.3688 20.6538C20.9664 19.3902 20.2787 18.2362 19.3589 17.281L20.9898 15.6523C22.4852 17.1927 23.4933 19.1396 23.8883 21.2498L21.3688 20.6538Z" fill="#030712"/>
<path d="M11.6627 34.1863C9.75299 33.9397 7.94218 33.1937 6.41302 32.0235L8.55807 30.6939C9.33968 31.1732 10.1923 31.5255 11.0843 31.7377L10.5414 29.4375L10.5015 29.2712V29.2514C9.40323 28.7711 8.45882 27.9971 7.77225 27.0146C7.08567 26.032 6.68357 24.879 6.61024 23.6826H0C0 24.0615 0.0398885 24.4427 0.0842079 24.8193C0.414615 27.6871 1.68826 30.3638 3.7051 32.429C3.74498 32.4711 3.78266 32.5132 3.82477 32.5553C4.04637 32.777 4.26795 32.9985 4.51172 33.1913C6.65731 35.0546 9.35256 36.1665 12.1879 36.358L11.6627 34.1863ZM2.30018 25.3556L4.82196 25.9517C5.2232 27.2127 5.91028 28.3639 6.82963 29.3156L5.19867 30.9465C3.70595 29.4069 2.6981 27.4628 2.30018 25.3556Z" fill="#030712"/>
<path d="M11.5541 10.2876C8.6843 10.6199 6.00611 11.8959 3.94004 13.9152L3.82481 14.026C3.60322 14.2476 3.38161 14.4825 3.18439 14.7196C1.32479 16.866 0.215433 19.56 0.0244141 22.3935L2.19606 21.8794C2.44121 19.967 3.18647 18.1532 4.35663 16.6209L5.68622 18.7659C5.20499 19.5505 4.85261 20.4071 4.6425 21.3032L6.91829 20.7648L7.10444 20.7204H7.12882C7.6043 19.6197 8.37521 18.6721 9.35614 17.9825C10.3371 17.293 11.4897 16.8884 12.6865 16.8137V10.2101C12.3076 10.2079 11.9286 10.2367 11.5541 10.2876ZM7.06456 17.0397L5.43582 15.4087C6.9747 13.9125 8.91986 12.9021 11.0289 12.5036L10.4328 15.0276C9.17154 15.4298 8.01927 16.1159 7.06456 17.0331V17.0397Z" fill="#030712"/>
<path d="M23.9925 24.6917C23.7485 26.613 22.9991 28.4352 21.821 29.9723L20.4914 27.8273C20.9779 27.037 21.3341 26.1736 21.5462 25.2701L19.0576 25.8661C18.5828 26.9727 17.8098 27.9255 16.8249 28.6181C15.8399 29.3107 14.6819 29.716 13.48 29.7884V36.392C13.859 36.392 14.2378 36.3522 14.6168 36.3078C17.4839 35.9795 20.1611 34.7092 22.2286 32.6958L22.3638 32.5673C22.5855 32.3457 22.7915 32.124 22.9931 31.8892C24.8599 29.7384 25.9734 27.0369 26.1642 24.1953L23.9925 24.6917ZM15.1398 34.0763L15.7337 31.5612C16.995 31.1646 18.1477 30.482 19.102 29.5668L20.7329 31.1977C19.1922 32.6883 17.2471 33.6924 15.1398 34.0852V34.0763Z" fill="#030712"/>
<path d="M50.8832 19.7207C50.6438 17.8593 49.4228 16.6627 46.9786 16.6627C44.9842 16.6627 43.6679 17.4671 43.6679 19.067C43.6679 21.0437 45.7089 21.4469 47.9869 21.8481C50.932 22.3777 54.3312 22.9561 54.3312 26.9448C54.3312 30.4194 51.7518 32.7373 47.7852 32.7373C43.8187 32.7373 40.6609 30.4194 40.251 26.9448L43.433 26.382C43.7233 28.6223 45.4274 29.9274 47.803 29.9274C49.8284 29.9274 51.1269 28.9702 51.1269 27.3969C51.1269 25.4025 49.0129 25.0058 46.7216 24.5649C43.7899 24.0109 40.4393 23.3682 40.4393 19.4149C40.4393 15.8406 43.1982 13.875 47.1382 13.875C51.2156 13.875 53.5955 15.989 54.0609 19.1933L50.8832 19.7207Z" fill="#030712"/>
<path d="M67.2878 32.3098H64.2409V30.2466C63.2459 31.882 61.7369 32.5114 59.9486 32.5114C57.0279 32.5114 55.5166 30.8495 55.5166 28.4584C55.5166 25.0835 58.537 24.7201 60.4139 24.4696L61.8477 24.2813C62.8293 24.155 64.201 23.9533 64.201 22.7301C64.201 21.8748 63.4853 21.1567 61.8853 21.1567C60.1746 21.1567 59.153 21.9634 58.7519 23.3484L55.7559 22.5927C56.5226 20.0621 58.6367 18.5508 61.974 18.5508C65.4486 18.5508 67.2923 20.2017 67.2923 23.0448L67.2878 32.3098ZM64.1855 25.9522C63.4943 26.158 62.7872 26.3063 62.0714 26.3953L60.9635 26.5593C59.6672 26.7477 58.5858 26.9759 58.5858 28.2833C58.5858 29.3914 59.3525 29.9076 60.6865 29.9076C62.6388 29.9076 64.1855 28.813 64.1855 27.0003V25.9522Z" fill="#030712"/>
<path d="M69.3312 18.7897H72.4335V20.8661C73.1382 19.4944 74.2462 18.5371 76.2606 18.5371C78.3124 18.5371 79.4581 19.5831 80.0122 21.2937C80.7678 19.6207 82.1638 18.5371 84.4441 18.5371C87.3913 18.5371 88.927 20.3099 88.927 23.0688V32.3094H85.8247V24.1102C85.8247 22.2976 85.0202 21.3027 83.4579 21.3027C81.6719 21.3027 80.6769 22.6322 80.6769 24.4383V32.3049H77.5746V24.1059C77.5746 22.3064 76.8056 21.2982 75.2456 21.2982C73.444 21.2982 72.4247 22.6278 72.4247 24.4338V32.3005H69.3223L69.3312 18.7897Z" fill="#030712"/>
<path d="M90.9722 14.2588H98.4887C102.034 14.2588 103.989 15.9695 103.989 18.7771C103.989 20.6275 103.147 22.152 101.536 22.7925C103.424 23.3221 104.392 24.8334 104.392 26.9341C104.392 30.1207 102.176 32.31 98.7524 32.31H90.9722V14.2588ZM94.1787 17.2415V21.6734H98.2073C99.8693 21.6734 100.802 20.787 100.802 19.4331C100.802 18.0791 99.8693 17.2415 98.3093 17.2415H94.1787ZM94.1787 24.1774V29.3274H98.4466C100.197 29.3274 101.179 28.2814 101.179 26.7081C101.179 25.1348 100.211 24.1774 98.4733 24.1774H94.1787Z" fill="#030712"/>
<path d="M118.395 25.5241C118.395 29.8053 115.914 32.511 111.969 32.511C108.024 32.511 105.562 29.8053 105.562 25.5241C105.562 21.2428 108.042 18.5371 111.969 18.5371C115.895 18.5371 118.395 21.2451 118.395 25.5241ZM108.663 25.5241C108.663 28.3561 109.884 29.8674 111.973 29.8674C114.063 29.8674 115.297 28.3561 115.297 25.5241C115.297 22.6921 114.076 21.1807 111.973 21.1807C109.87 21.1807 108.663 22.6965 108.663 25.5241Z" fill="#030712"/>
<path d="M131.099 32.3098H128.052V30.2466C127.057 31.882 125.548 32.5114 123.76 32.5114C120.839 32.5114 119.328 30.8495 119.328 28.4584C119.328 25.0835 122.349 24.7201 124.223 24.4696L125.659 24.2813C126.64 24.155 128.013 23.9533 128.013 22.7301C128.013 21.8748 127.297 21.1567 125.697 21.1567C123.984 21.1567 122.964 21.9634 122.564 23.3484L119.565 22.5927C120.334 20.0621 122.446 18.5508 125.785 18.5508C129.26 18.5508 131.103 20.2017 131.103 23.0448L131.099 32.3098ZM127.998 25.9522C127.306 26.158 126.599 26.3063 125.883 26.3953L124.775 26.5593C123.479 26.7477 122.395 26.9759 122.395 28.2833C122.395 29.3914 123.164 29.9076 124.498 29.9076C126.451 29.9076 127.998 28.813 127.998 27.0003V25.9522Z" fill="#030712"/>
<path d="M143.937 21.5117V18.8348H137.731V14.2588L134.766 15.7258V18.8281H131.885V21.505H134.766V27.5901C134.766 30.9295 136.277 32.5538 139.386 32.5538C142.283 32.5538 143.947 30.6082 143.947 27.2133V25.1104H140.982V27.1845C140.982 29.1479 140.539 29.8792 139.327 29.8792C138.299 29.8792 137.731 29.0659 137.731 27.5901V21.5117H143.937Z" fill="#030712"/>
</g>
</g>
<defs>
<clipPath id="clip0_3044_47708">
<rect width="144" height="48" fill="white" transform="translate(0 0.5)"/>
</clipPath>
<clipPath id="clip1_3044_47708">
<rect width="144" height="38.4" fill="white" transform="translate(0 5.30078)"/>
</clipPath>
</defs>
</svg>
