 <svg
    xmlns="http://www.w3.org/2000/svg"
    width={152}
    height={35}
    fill="none"
    {...props}
  >
    <g clipPath="url(#a)">
      <mask
        id="b"
        width={151}
        height={31}
        x={0}
        y={4}
        maskUnits="userSpaceOnUse"
        style={{
          maskType: "luminance",
        }}
      >
        <path fill="#fff" d="M150.818 4.063H.578v30.24h150.24V4.063Z" />
      </mask>
      <g mask="url(#b)">
        <path
          fill="#FDDB32"
          d="M22.022 31.066H6.126c-3.059 0-5.548-2.49-5.548-5.56V9.61a5.555 5.555 0 0 1 5.548-5.547h15.896c3.07 0 5.548 2.489 5.548 5.547v15.897a5.542 5.542 0 0 1-5.548 5.56Z"
        />
        <path
          fill="#191E3B"
          d="M8.827 25.816v-2.62a.374.374 0 0 0-.38-.38H5.829a.374.374 0 0 0-.38.38v2.62c0 .213.167.379.38.379h2.62c.213 0 .38-.166.38-.38ZM22.711 23.564v-12.91c0-.96-.77-1.73-1.73-1.73H8.07c-.26 0-.415.095-.58.26l-2.573 2.597c-.19.19-.06.474.225.474H16.82l-7.242 7.243a.6.6 0 0 0-.19.474v1.909c0 .225.154.379.38.379h1.908c.225 0 .355-.06.474-.19l7.243-7.243v11.677c0 .284.284.415.474.225l2.596-2.584c.154-.166.249-.32.249-.581ZM61.9 20.231l5.287-7.302c.154-.225.035-.45-.225-.45h-2.88c-.155 0-.356.059-.451.225l-3.486 5.085-3.568-5.085c-.094-.154-.284-.226-.45-.226h-3.07c-.154 0-.261.13-.261.261 0 .06 0 .13.06.19l5.298 7.326-5.844 8.037c-.154.225-.036.45.19.45h2.904c.154 0 .355-.059.45-.225l4.043-5.82 4.101 5.82c.095.166.285.226.45.226h3.095c.154 0 .26-.13.26-.261 0-.06-.035-.13-.059-.19l-5.844-8.06ZM50.093 6.375a.36.36 0 0 1 .38.38v2.169a.36.36 0 0 1-.38.379H39.769v6.449h9.27c.226 0 .38.154.38.379v2.157a.36.36 0 0 1-.38.38h-9.27v7.065h10.325a.36.36 0 0 1 .38.38v2.24a.36.36 0 0 1-.38.379H38.014c-.925 0-1.624-.7-1.624-1.624V7.999c0-.925.7-1.624 1.624-1.624h12.08ZM78.684 11.969c-3.129 0-4.789 1.375-5.749 2.655v-1.766a.36.36 0 0 0-.379-.38h-2.525a.367.367 0 0 0-.38.38V33.91c0 .225.155.38.38.38h2.56c.226 0 .38-.155.38-.38v-7.255c.924 1.28 2.584 2.56 5.713 2.56 5.086 0 8.05-3.828 8.05-8.63 0-4.8-2.964-8.617-8.05-8.617Zm-.569 14.497c-3.129 0-5.274-2.11-5.274-5.844 0-3.734 2.145-5.915 5.274-5.915 3.13 0 5.24 2.17 5.24 5.915 0 3.734-2.11 5.844-5.24 5.844ZM96.81 11.969c-4.445 0-7.99 3.2-7.99 8.5 0 5.428 3.13 8.76 8.405 8.76 3.034 0 5.559-1.34 7.124-3.201a.39.39 0 0 0 .13-.285.39.39 0 0 0-.13-.284l-1.47-1.446a.392.392 0 0 0-.284-.13c-.095 0-.19.058-.285.153-1.209 1.316-2.786 2.43-5.05 2.43-3.308 0-4.895-2.039-5.145-4.978h12.269c.225 0 .38-.166.38-.38v-.64c0-4.86-2.94-8.5-7.954-8.5Zm-4.576 7.03c.38-2.668 1.778-4.41 4.552-4.41 2.845 0 4.351 1.623 4.564 4.41h-9.116ZM150.45 12.477h-2.525a.362.362 0 0 0-.38.38v1.79c-.96-1.28-2.619-2.656-5.82-2.656-5.014 0-7.989 3.83-7.989 8.63 0 4.801 2.975 8.63 7.989 8.63 3.201 0 4.86-1.375 5.82-2.655v1.754c0 .225.155.38.38.38h2.525c.225 0 .38-.155.38-.38V12.856c.011-.225-.155-.379-.38-.379Zm-8.085 14.024c-3.129 0-5.239-2.17-5.239-5.916 0-3.734 2.11-5.844 5.239-5.844 3.13 0 5.276 2.11 5.276 5.844 0 3.746-2.146 5.916-5.276 5.916ZM123.555 6.375h-2.561a.36.36 0 0 0-.379.38v7.894c-.96-1.28-2.584-2.655-5.785-2.655-5.014 0-7.989 3.829-7.989 8.63 0 4.8 2.975 8.63 7.989 8.63 3.201 0 4.86-1.376 5.82-2.656v1.755c0 .225.155.379.38.379h2.525a.36.36 0 0 0 .379-.38V6.755a.36.36 0 0 0-.379-.379Zm-8.085 20.128c-3.129 0-5.239-2.169-5.239-5.915 0-3.734 2.11-5.844 5.239-5.844 3.13 0 5.275 2.11 5.275 5.844 0 3.746-2.145 5.915-5.275 5.915ZM130.513 6.375a.36.36 0 0 1 .379.38v2.62a.36.36 0 0 1-.379.378h-2.62a.36.36 0 0 1-.379-.379v-2.62a.36.36 0 0 1 .379-.379h2.62ZM130.487 12.479a.36.36 0 0 1 .379.379V28.35a.36.36 0 0 1-.379.38h-2.561a.36.36 0 0 1-.379-.38V12.858a.36.36 0 0 1 .379-.38h2.561Z"
        />
      </g>
    </g>
    <defs>
      <clipPath id="a">
        <path fill="#fff" d="M.4.7h151.2v33.6H.4z" />
      </clipPath>
    </defs>
  </svg>