<svg width="198" height="35" viewBox="0 0 198 35" fill="none" xmlns="http://www.w3.org/2000/svg">
<g clip-path="url(#clip0_3044_47747)">
<path fill-rule="evenodd" clip-rule="evenodd" d="M15.6361 33.8042C22.7918 35.0061 29.6342 31.2785 32.734 25.082C32.8577 24.8357 33.0327 24.62 33.247 24.4501C33.4611 24.2803 33.7091 24.1602 33.9735 24.0987C36.3295 23.5454 38.2413 21.6193 38.6639 19.0681C38.7869 18.3277 38.7539 17.5989 38.6434 16.8979C38.566 16.3993 38.3016 16.1727 37.8961 16.1052C37.47 16.0332 37.1521 16.1947 36.9106 16.6608C36.5449 17.3664 35.1846 18.0068 34.2151 18.5706C33.3436 19.0774 32.9961 19.7666 32.5131 19.8933C32.0174 20.0235 31.2838 19.3946 30.4874 19.1564C29.5168 18.8658 28.8104 18.8472 28.0495 18.2788C27.9182 18.1271 27.7418 18.0237 27.5472 17.9844C27.3527 17.9452 27.1509 17.9724 26.973 18.0618C26.7951 18.1511 26.651 18.2977 26.5628 18.479C26.4746 18.6602 26.4474 18.866 26.4852 19.0645C26.7183 20.4532 27.4073 21.7197 28.439 22.6562C29.3299 23.3641 29.5099 24.2277 28.8993 25.2703C27.6097 27.4648 25.1546 27.9205 23.1165 27.9205C19.3341 27.9205 16.953 24.9356 16.8129 21.7054C16.781 20.9568 16.8995 20.5628 17.4588 20.5012C18.1117 20.4292 18.4523 20.5012 19.1335 20.5338C19.5711 20.5546 20.0016 20.5954 20.4198 20.6802C21.3814 20.8755 21.5977 20.4198 21.6479 20.0526C21.6809 19.8143 21.5682 19.4911 21.4474 19.304C20.7639 18.2498 20.7296 17.9882 19.6633 17.0804C19.4264 16.8782 19.1518 16.5086 19.3443 16.2354C19.7544 15.6531 20.9188 15.0022 23.7635 14.4919C24.9108 14.2862 26.598 14.2641 27.4376 14.3397C28.3206 14.4187 29.4427 14.5 30.1947 14.7022C31.2189 14.9777 32.0778 14.1607 32.2112 13.3586C32.3228 12.6844 32.0288 12.1614 31.4751 11.5198C31.0764 11.0571 30.7655 10.784 30.5888 9.25901C30.2915 6.70185 28.3331 5.09083 27.3647 4.3632C25.2707 2.78706 23.7191 2.17102 20.9586 1.70724C17.5733 1.13186 14.0963 1.66276 11.0243 3.2241C10.159 3.65185 9.16781 3.73274 8.24681 3.45076C7.90047 3.34583 7.54913 3.25892 7.19414 3.19039C4.92331 2.75086 2.57329 3.15886 0.57276 4.33996C0.460271 4.40641 0.363485 4.49729 0.289261 4.60616C0.215038 4.71504 0.165193 4.83922 0.143259 4.96995C0.0612322 5.46394 0.285666 5.83589 0.884917 6.0149C1.78721 6.28456 2.58583 6.9006 3.01533 7.80839C3.32517 8.48534 3.49452 9.22032 3.51275 9.96721C3.53099 10.7141 3.39771 11.4568 3.12128 12.1486C2.77629 13.0979 2.51959 14.0782 2.35456 15.0765C1.21531 21.9414 4.52713 28.5191 10.1699 31.8237C11.861 32.8122 13.7124 33.4839 15.6361 33.8042Z" fill="#0AE9F5"/>
<path d="M57.9754 8.28539C63.1571 8.28539 65.906 11.2554 65.906 16.9112V20.1971C65.906 26.0424 63.2519 28.7281 57.533 28.7281C56.048 28.7281 54.5314 28.5701 52.762 28.2541V24.431C54.3734 24.8101 55.7953 24.9997 57.1538 24.9997C60.5978 24.9997 61.9565 23.7675 61.9565 20.6394C61.1666 21.9349 59.3656 22.7565 57.3434 22.7565C52.9832 22.7565 50.1079 19.9128 50.1079 15.5841C50.1079 11.2554 53.4571 8.28539 57.9754 8.28539ZM57.9754 19.0281C60.3451 19.0281 61.8933 17.6694 61.8933 15.5841C61.8933 13.4987 60.3451 12.0137 57.9754 12.0137C55.6057 12.0137 54.1207 13.4672 54.1207 15.5841C54.1207 17.701 55.6688 19.0281 57.9754 19.0281ZM75.1005 8.28539C79.745 8.28539 82.6835 11.445 82.6835 16.4688C82.6835 16.7216 82.652 17.1639 82.6204 17.6378H71.0245C71.4037 19.7864 72.8887 20.9238 75.3532 20.9238C76.9963 20.9238 78.3548 20.2919 79.4608 19.0281L82.02 21.5874C80.4086 23.5147 78.1969 24.4626 75.2901 24.4626C70.2031 24.4626 67.0434 21.3978 67.0434 16.4688C67.0434 11.5398 70.3611 8.28539 75.1005 8.28539ZM78.5444 14.6362C78.3548 12.8352 77.0911 11.8241 75.0373 11.8241C72.9835 11.8241 71.6565 12.8036 71.151 14.6362H78.5444ZM83.6934 4.43066H87.7061V8.66454H93.1722V12.2665H87.7061V16.9112C87.7061 19.502 88.6856 20.4815 91.3397 20.4815H93.1722V24.0834H90.455C85.9051 24.0834 83.6934 21.8401 83.6934 17.1323V4.43066ZM101.134 8.28539C103.41 8.28539 105.052 9.07528 106.38 10.8131C107.454 9.20167 109.35 8.28539 111.593 8.28539C115.732 8.28539 118.26 10.9711 118.26 15.3629V24.0834H114.31V15.6156C114.31 13.088 113.489 12.0769 111.403 12.0769C109.318 12.0769 108.339 13.1196 108.339 15.6156V24.0834H104.389V15.6156C104.389 13.088 103.504 12.0769 101.261 12.0769C99.2386 12.0769 98.354 13.1512 98.354 15.6156V24.0834H94.4045V15.3629C94.4045 10.8763 96.8689 8.28539 101.134 8.28539ZM119.302 8.66454H123.252V15.6156C123.252 17.7958 124.547 19.0281 126.853 19.0281C129.16 19.0281 130.487 17.8274 130.487 15.6156V8.66454H134.437V20.1971C134.437 26.0424 131.782 28.7281 126.064 28.7281C124.579 28.7281 123.063 28.5701 121.293 28.2541V24.431C122.904 24.8101 124.326 24.9997 125.684 24.9997C129.192 24.9997 130.582 23.7675 130.582 20.6394C129.729 21.9981 128.149 22.7565 126.254 22.7565C122.02 22.7565 119.302 20.1024 119.302 15.9V8.66454ZM135.669 4.43066H139.618V10.4023C140.566 9.01209 142.178 8.28539 144.232 8.28539C148.718 8.28539 151.847 11.603 151.847 16.374C151.847 21.145 148.497 24.4626 143.631 24.4626C138.765 24.4626 135.669 21.0818 135.669 16.374V4.43066ZM143.757 20.7342C146.159 20.7342 147.834 18.9333 147.834 16.374C147.834 13.8147 146.222 11.9822 143.757 11.9822C141.293 11.9822 139.681 13.7831 139.681 16.374C139.681 18.9648 141.356 20.7342 143.757 20.7342ZM160.978 8.28539C165.78 8.28539 169.129 11.603 169.129 16.374C169.129 21.145 165.78 24.4626 160.978 24.4626C156.175 24.4626 152.889 21.145 152.889 16.374C152.889 11.603 156.175 8.28539 160.978 8.28539ZM160.978 20.7342C163.379 20.7342 165.053 18.9333 165.053 16.374C165.053 13.8147 163.379 12.0137 160.978 12.0137C158.576 12.0137 156.839 13.8147 156.839 16.374C156.839 18.9333 158.513 20.7342 160.978 20.7342ZM178.387 8.28539C183.031 8.28539 186.349 11.6662 186.349 16.374V24.0834H182.716V21.8718C181.768 23.4831 179.872 24.4626 177.787 24.4626C173.3 24.4626 170.172 21.145 170.172 16.374C170.172 11.603 173.521 8.28539 178.387 8.28539ZM178.26 20.7658C180.662 20.7658 182.336 18.9648 182.336 16.374C182.336 13.7831 180.662 12.0137 178.26 12.0137C175.859 12.0137 174.184 13.8147 174.184 16.374C174.184 18.9333 175.796 20.7658 178.26 20.7658ZM187.707 4.43066H191.72V8.66454H197.185V12.2665H191.72V16.9112C191.72 19.502 192.699 20.4815 195.352 20.4815H197.185V24.0834H194.468C189.918 24.0834 187.707 21.8401 187.707 17.1323V4.43066Z" fill="#232626"/>
</g>
<defs>
<clipPath id="clip0_3044_47747">
<rect width="197.527" height="33.6" fill="white" transform="translate(0 0.700195)"/>
</clipPath>
</defs>
</svg>
