<svg width="72" height="49" viewBox="0 0 72 49" fill="none" xmlns="http://www.w3.org/2000/svg">
<g clip-path="url(#clip0_3044_47754)">
<g clip-path="url(#clip1_3044_47754)">
<path d="M9.07082 39.0762C9.13331 39.0762 9.13322 39.1077 9.13322 39.1707L7.13741 45.088C7.13741 45.1195 7.10619 45.151 7.04374 45.151H6.42008C6.35763 45.151 6.32641 45.1195 6.32641 45.088L5.07911 41.2801L3.58284 45.088C3.55162 45.1195 3.5204 45.151 3.48918 45.151H2.86554C2.80309 45.151 2.77185 45.1195 2.77185 45.088L0.86967 39.1707C0.838445 39.1077 0.869679 39.0762 0.932122 39.0762H1.61821C1.68066 39.0762 1.71191 39.1077 1.71191 39.1393L3.23939 44.0802L4.73562 40.2091L4.39302 39.1707C4.3618 39.1077 4.393 39.0762 4.45545 39.0762H5.11032C5.17278 39.0762 5.20402 39.1077 5.20402 39.1393L6.7315 43.9549L8.29019 39.1393C8.29019 39.1077 8.32144 39.0762 8.38388 39.0762H9.06996H9.07082Z" fill="#030712" stroke="#030712" strokeWidth="0.642857" stroke-miterlimit="10"/>
<path d="M13.1547 45.0534C13.1536 45.0697 13.1466 45.085 13.1352 45.0967C13.1237 45.1083 13.1084 45.1153 13.0923 45.1164H12.4062C12.39 45.1153 12.3748 45.1083 12.3633 45.0967C12.3519 45.085 12.3449 45.0697 12.3438 45.0534V35.7057C12.3447 35.6892 12.3516 35.6738 12.3631 35.6621C12.3746 35.6505 12.39 35.6436 12.4062 35.6426H13.0923C13.1085 35.6436 13.1238 35.6505 13.1353 35.6621C13.1468 35.6738 13.1538 35.6892 13.1547 35.7057V39.7657C13.4167 39.5035 13.7227 39.2903 14.0586 39.1361C14.441 38.9638 14.8558 38.8766 15.2747 38.8806C15.5451 38.8612 15.8166 38.902 16.0698 38.9998C16.323 39.0976 16.552 39.2504 16.7405 39.4471C17.1205 39.9624 17.2982 40.6015 17.2392 41.2412V45.0807C17.2383 45.097 17.2314 45.1125 17.2199 45.1241C17.2084 45.1357 17.193 45.1426 17.1768 45.1437H16.4907C16.4745 45.1426 16.4592 45.1357 16.4477 45.1241C16.4362 45.1125 16.4292 45.097 16.4283 45.0807V41.2727C16.453 41.0434 16.4328 40.8113 16.3686 40.5898C16.3044 40.3684 16.1976 40.1619 16.0544 39.9821C15.9213 39.8573 15.7638 39.7621 15.592 39.7025C15.4201 39.6429 15.2379 39.6203 15.0569 39.6363C14.6854 39.6368 14.3202 39.7342 13.9969 39.919C13.6427 40.1184 13.3505 40.4134 13.1531 40.771V45.0517L13.1547 45.0534Z" fill="#030712" stroke="#030712" strokeWidth="0.642857" stroke-miterlimit="10"/>
<path d="M21.605 37.5642C21.4113 37.5691 21.2226 37.5018 21.0751 37.375C21.0092 37.3151 20.9559 37.2425 20.9184 37.1614C20.8808 37.0803 20.8598 36.9925 20.8565 36.903C20.8526 36.8079 20.8702 36.7131 20.9081 36.6258C20.946 36.5386 21.0031 36.4612 21.0751 36.3996C21.1467 36.3344 21.2304 36.2842 21.3213 36.2518C21.4123 36.2193 21.5087 36.2052 21.605 36.2105C21.6967 36.2042 21.7887 36.2178 21.8748 36.2503C21.9608 36.2829 22.039 36.3337 22.104 36.3994C22.169 36.465 22.2193 36.5439 22.2516 36.6307C22.2838 36.7176 22.2974 36.8105 22.2911 36.903C22.2934 36.9905 22.278 37.0775 22.2458 37.1586C22.2135 37.2398 22.1653 37.3134 22.1037 37.375C21.9636 37.4934 21.7877 37.5601 21.605 37.5642ZM22.01 45.0548C22.0091 45.0712 22.0022 45.0866 21.9907 45.0983C21.9792 45.1098 21.9638 45.1168 21.9476 45.1178H21.2616C21.2453 45.1168 21.23 45.1098 21.2185 45.0983C21.207 45.0866 21.2001 45.0712 21.1991 45.0548V39.1376C21.2001 39.1212 21.207 39.1057 21.2185 39.0942C21.23 39.0825 21.2453 39.0756 21.2616 39.0745H21.9476C21.9638 39.0756 21.9792 39.0825 21.9907 39.0942C22.0022 39.1057 22.0091 39.1212 22.01 39.1376V45.0548Z" fill="#030712" stroke="#030712" strokeWidth="0.642857" stroke-miterlimit="10"/>
<path d="M26.8433 45.0563C26.8422 45.0727 26.8354 45.0881 26.8238 45.0998C26.8123 45.1113 26.797 45.1184 26.7808 45.1193H26.0947C26.0784 45.1184 26.0631 45.1113 26.0516 45.0998C26.0401 45.0881 26.0333 45.0727 26.0322 45.0563V39.1391C26.0333 39.1226 26.0401 39.1072 26.0516 39.0956C26.0631 39.084 26.0784 39.077 26.0947 39.076H26.6559C26.6721 39.077 26.6874 39.084 26.6989 39.0956C26.7104 39.1072 26.7173 39.1226 26.7183 39.1391L26.812 39.8632C27.0494 39.574 27.335 39.329 27.6559 39.1391C28.0201 38.9464 28.4263 38.849 28.8374 38.8554C29.2079 38.8214 29.5789 38.9148 29.8902 39.1205C30.2015 39.3262 30.4348 39.632 30.5522 39.9884C30.78 39.6542 31.078 39.3747 31.4248 39.1698C31.8096 38.9338 32.2532 38.8138 32.7034 38.8238C32.9675 38.8022 33.233 38.845 33.4773 38.9488C33.7216 39.0526 33.9375 39.2143 34.1068 39.4202C34.4532 39.9266 34.6181 40.5374 34.5743 41.1512V45.0222C34.5733 45.0386 34.5664 45.0541 34.5549 45.0656C34.5434 45.0773 34.5281 45.0842 34.5119 45.0853H33.8257C33.8095 45.0842 33.7942 45.0773 33.7827 45.0656C33.7712 45.0541 33.7643 45.0386 33.7633 45.0222V41.1512C33.8009 40.7292 33.6906 40.3071 33.4519 39.9586C33.3335 39.8297 33.1881 39.7291 33.0263 39.6638C32.8647 39.5985 32.6907 39.5703 32.5169 39.5812C32.1497 39.5738 31.7896 39.6838 31.4881 39.8955C31.1666 40.1271 30.9003 40.428 30.7084 40.7764V44.9941C30.7073 45.0104 30.7004 45.026 30.6889 45.0375C30.6774 45.0492 30.6621 45.0561 30.6459 45.0572H29.9597C29.9435 45.0561 29.9283 45.0492 29.9167 45.0375C29.9052 45.026 29.8984 45.0104 29.8973 44.9941V41.1248C29.9349 40.7027 29.8247 40.2807 29.5859 39.9322C29.4675 39.8033 29.3221 39.7027 29.1605 39.6374C28.9987 39.5721 28.8247 39.5439 28.6509 39.5548C28.2768 39.5666 27.9119 39.6748 27.5909 39.8691C27.2527 40.1084 26.9836 40.4342 26.8112 40.813V45.0623L26.8433 45.0563Z" fill="#030712" stroke="#030712" strokeWidth="0.642857" stroke-miterlimit="10"/>
<path d="M41.9639 40.2696C41.9327 40.3011 41.8703 40.3011 41.8703 40.2696C41.7275 40.0653 41.5339 39.9026 41.3091 39.7977C41.0151 39.6657 40.6957 39.601 40.374 39.6085C40.142 39.6069 39.911 39.6387 39.6879 39.7031C39.4831 39.7496 39.2978 39.8595 39.1579 40.0174C39.0768 40.1032 39.0157 40.2063 38.979 40.319C38.9424 40.4316 38.9311 40.5512 38.9461 40.6688C38.961 40.7865 39.0019 40.8992 39.0655 40.999C39.1292 41.0986 39.2141 41.1826 39.3141 41.245C39.7118 41.4652 40.1444 41.6143 40.5926 41.6854C41.1039 41.778 41.5853 41.994 41.996 42.315C42.1782 42.4531 42.3245 42.6338 42.4222 42.8416C42.5199 43.0492 42.5663 43.2778 42.5572 43.5076C42.5683 43.8934 42.4473 44.2714 42.2146 44.5776C41.9847 44.8628 41.683 45.0802 41.3411 45.2072C40.991 45.3335 40.6218 45.3975 40.25 45.3963C39.7438 45.408 39.2418 45.3004 38.7841 45.082C38.3641 44.884 38.0312 44.5367 37.8491 44.1065C37.8431 44.0987 37.8393 44.0896 37.8377 44.0799C37.8361 44.0702 37.8369 44.0602 37.84 44.0509C37.8431 44.0416 37.8484 44.0332 37.8554 44.0265C37.8623 44.0196 37.8709 44.0146 37.8803 44.012L38.4102 43.7291H38.4726C38.5039 43.7291 38.5039 43.7607 38.5351 43.7922C38.6699 44.1016 38.9147 44.3487 39.2213 44.4848C39.5297 44.6466 39.8711 44.734 40.2187 44.7403C40.5872 44.7416 40.9506 44.654 41.2787 44.4848C41.42 44.4032 41.5358 44.2832 41.6129 44.1385C41.6901 43.9937 41.7254 43.8301 41.715 43.6661C41.7297 43.4969 41.6964 43.3271 41.6192 43.1763C41.542 43.0254 41.4239 42.8999 41.2787 42.8142C40.9144 42.6323 40.5257 42.5052 40.125 42.4368C39.606 42.3418 39.1091 42.1497 38.66 41.8703C38.4781 41.7384 38.3316 41.5629 38.2337 41.3596C38.1357 41.1563 38.0894 40.9317 38.0988 40.7057C38.077 40.3526 38.1882 40.0042 38.4102 39.7304C38.6323 39.4709 38.9262 39.2846 39.2542 39.1953C39.5953 39.0794 39.9543 39.026 40.3141 39.0377C40.743 39.034 41.1679 39.1209 41.5614 39.2933C41.8841 39.4399 42.1718 39.6545 42.4053 39.9229C42.4365 39.9544 42.4365 39.9859 42.4053 40.049L41.9639 40.2696Z" fill="#030712" stroke="#030712" strokeWidth="0.642857" stroke-miterlimit="10"/>
<path d="M46.1422 43.4507V39.7994H45.2984C45.2857 39.801 45.2728 39.7995 45.2608 39.7953C45.2488 39.7911 45.2379 39.7842 45.2288 39.7751C45.2198 39.766 45.2129 39.7549 45.2087 39.7428C45.2046 39.7306 45.2032 39.7176 45.2047 39.7049V39.1384C45.2032 39.1256 45.2046 39.1127 45.2087 39.1005C45.2129 39.0883 45.2198 39.0773 45.2288 39.0682C45.2379 39.0591 45.2488 39.0522 45.2608 39.048C45.2728 39.0438 45.2857 39.0423 45.2984 39.0438H46.1422V37.8205C46.1422 37.789 46.1422 37.7574 46.1734 37.7574L46.8908 37.5684C46.9221 37.5684 46.9533 37.5684 46.9533 37.6314V39.0796H48.8554C48.8681 39.0781 48.8809 39.0795 48.893 39.0837C48.905 39.088 48.916 39.0948 48.925 39.1039C48.934 39.113 48.9408 39.1241 48.945 39.1362C48.9492 39.1484 48.9506 39.1614 48.9491 39.1741V39.7407C48.9506 39.7535 48.9492 39.7664 48.945 39.7786C48.9408 39.7908 48.934 39.8017 48.925 39.8108C48.916 39.82 48.905 39.8268 48.893 39.8311C48.8809 39.8353 48.8681 39.8367 48.8554 39.8352H46.9533V43.518C46.9533 43.9584 47.047 44.2735 47.2343 44.3996C47.4306 44.5516 47.6732 44.6296 47.9204 44.6202C48.1009 44.6169 48.2797 44.585 48.4504 44.5257C48.6304 44.4726 48.8074 44.4096 48.9803 44.3366C49.0428 44.3051 49.074 44.3366 49.074 44.3682L49.2614 44.9346C49.2926 44.9662 49.2614 44.9976 49.2302 45.0292C48.982 45.1472 48.7199 45.2331 48.4504 45.2848C48.205 45.3434 47.954 45.3751 47.7018 45.3793C47.2672 45.3872 46.8455 45.23 46.5203 44.9388C46.2532 44.4906 46.1218 43.9734 46.1422 43.4507Z" fill="#030712" stroke="#030712" strokeWidth="0.642857" stroke-miterlimit="10"/>
<path d="M52.035 39.672C52.0292 39.6641 52.0253 39.655 52.0237 39.6453C52.0222 39.6356 52.0229 39.6257 52.026 39.6164C52.0291 39.6071 52.0344 39.5987 52.0414 39.5919C52.0484 39.585 52.0569 39.5801 52.0662 39.5774C52.4291 39.3547 52.8162 39.1752 53.2199 39.0424C53.6023 38.921 54.0005 38.8572 54.4014 38.8533C54.6936 38.8111 54.9915 38.8382 55.2715 38.9325C55.5516 39.0267 55.8059 39.1854 56.0147 39.3961C56.2235 39.6068 56.3807 39.8637 56.474 40.1464C56.5674 40.4291 56.5943 40.7298 56.5525 41.0247V44.1409C56.5434 44.1998 56.5502 44.2602 56.5721 44.3154C56.5942 44.3707 56.6305 44.4191 56.6774 44.4553C56.7596 44.5144 56.8575 44.5473 56.9584 44.5499C56.9897 44.5499 57.0209 44.5814 57.0209 44.6444L56.9584 45.2109C56.9574 45.2274 56.9505 45.2428 56.939 45.2544C56.9275 45.266 56.9122 45.273 56.896 45.274C56.6545 45.2748 56.4174 45.2094 56.2098 45.0848C56.1055 45.0187 56.0157 44.9317 55.946 44.8291C55.8763 44.7265 55.8282 44.6106 55.8048 44.4885C55.547 44.7779 55.2272 45.004 54.8698 45.1496C54.514 45.2982 54.1324 45.3732 53.7474 45.3702C53.4265 45.3683 53.1091 45.3041 52.8123 45.1811C52.5161 45.0651 52.2646 44.856 52.095 44.5848C51.8925 44.2434 51.7947 43.8492 51.8139 43.4518C51.8024 43.2105 51.844 42.9696 51.9356 42.7465C52.0272 42.5233 52.1667 42.3234 52.3439 42.1612C52.7486 41.8106 53.2486 41.5913 53.7785 41.5316C54.4357 41.4004 55.1045 41.337 55.7744 41.3424V41.1219C55.7955 40.917 55.773 40.71 55.7086 40.5146C55.6441 40.3193 55.5391 40.14 55.4005 39.9888C55.1021 39.7445 54.7242 39.6211 54.3406 39.643C54.023 39.6493 53.708 39.7024 53.4055 39.8005C53.0658 39.8934 52.7479 40.0539 52.4705 40.2726C52.4393 40.304 52.3768 40.304 52.3768 40.2726L52.035 39.672ZM55.777 43.2917V42.0325H55.4655C54.9843 42.0234 54.5033 42.0656 54.0309 42.1586C53.6566 42.2152 53.3027 42.3667 53.0021 42.599C52.8807 42.7038 52.784 42.8346 52.7193 42.9821C52.6546 43.1295 52.6235 43.2897 52.6283 43.4509C52.6108 43.6177 52.6359 43.7864 52.7014 43.9406C52.7669 44.0948 52.8704 44.2295 53.0021 44.3317C53.2579 44.5101 53.5642 44.5998 53.8748 44.5873C54.2609 44.5908 54.6398 44.4816 54.966 44.273C55.346 44.0567 55.6343 43.7072 55.7761 43.2907L55.777 43.2917Z" fill="#030712" stroke="#030712" strokeWidth="0.642857" stroke-miterlimit="10"/>
<path d="M62.5111 43.9865L64.2571 39.1393C64.2883 39.1077 64.3195 39.0762 64.3508 39.0762H65.0681C65.1306 39.0762 65.1618 39.1077 65.1306 39.1707L62.852 45.088C62.7584 45.359 62.6438 45.6222 62.5093 45.8751C62.3665 46.1724 62.1997 46.4573 62.0106 46.7269C61.7995 46.9881 61.5465 47.2116 61.262 47.3881C60.9241 47.5608 60.5497 47.6485 60.1709 47.6437H59.9835C59.9195 47.6486 59.8552 47.6378 59.7961 47.6121C59.7337 47.5806 59.7337 47.549 59.7337 47.5176L59.8274 46.951C59.8274 46.888 59.8586 46.8565 59.9211 46.888H60.2325C60.557 46.9003 60.876 46.8002 61.1363 46.6043C61.3837 46.4006 61.5946 46.1557 61.7599 45.8802C61.9204 45.5992 62.0559 45.3044 62.165 44.9994L59.6705 39.1767C59.6392 39.1136 59.6705 39.0822 59.7329 39.0822H60.4502C60.4814 39.0822 60.5127 39.1136 60.5439 39.1452L62.5111 43.9865Z" fill="#030712" stroke="#030712" strokeWidth="0.642857" stroke-miterlimit="10"/>
<path d="M63.3508 2.25556C62.9813 2.03354 62.5723 1.88789 62.1474 1.82696C61.7226 1.76602 61.2901 1.79099 60.8747 1.90043C60.4593 2.00988 60.0691 2.20165 59.7266 2.46478C59.3841 2.7279 59.0959 3.05721 58.8786 3.43385C56.0346 8.3665 53.171 13.3186 50.3265 18.2513C48.993 20.5679 47.7963 23.0039 46.5604 25.4005C46.3236 25.9649 45.9599 26.4647 45.4986 26.8599C43.537 28.2776 42.4582 24.5633 41.8307 23.3849L39.438 18.7907L36.1035 12.4203C35.7425 11.7289 35.1516 11.1909 34.4365 10.9025H34.4168C34.3187 10.8625 34.2401 10.8425 34.1424 10.8025C34.0974 10.7866 34.0514 10.7732 34.0049 10.7626C33.9484 10.7398 33.8887 10.7262 33.8281 10.7225C33.7765 10.7069 33.7226 10.7003 33.6689 10.7026C33.6099 10.7026 33.5706 10.6826 33.5096 10.6826H32.8624C32.8035 10.6826 32.7445 10.7026 32.6862 10.7026C32.6469 10.7026 32.5879 10.7225 32.5487 10.7225C32.4856 10.7454 32.4196 10.7589 32.3527 10.7626C32.3135 10.7626 32.2742 10.7825 32.2349 10.7825C32.1367 10.8226 32.039 10.8425 31.9408 10.8826C31.2258 11.1709 30.6349 11.7089 30.2738 12.4003C29.2121 14.4375 28.1359 16.494 27.0769 18.5312C25.8409 20.9094 24.7621 23.5239 23.3107 25.7805C21.6044 28.4165 19.86 25.3811 19.0546 23.7039C17.4853 20.4689 15.6038 17.3934 13.7988 14.2991C12.5825 12.2025 11.3864 10.1053 10.1701 8.00868H15.6426C16.6206 8.00868 17.5585 7.61314 18.2501 6.90906C18.9416 6.20499 19.3301 5.25005 19.3301 4.25435C19.3301 3.25863 18.9416 2.3037 18.2501 1.59963C17.5585 0.89555 16.6206 0.500002 15.6426 0.500002H4.80181C4.3174 0.499433 3.83763 0.596158 3.38999 0.78463C2.94234 0.973102 2.53561 1.24962 2.19308 1.59835C1.85054 1.94709 1.57895 2.36119 1.39382 2.81695C1.20871 3.2727 1.1137 3.76115 1.11427 4.25435C1.11272 4.93751 1.29643 5.60785 1.64516 6.19151C1.71488 6.41682 1.81379 6.63167 1.93927 6.83039L15.0013 29.4154C15.3936 30.1343 17.4136 33.5291 21.1208 33.8885C21.3363 33.9086 21.5328 33.9286 21.7483 33.9286C25.5707 33.9286 28.1816 30.8131 29.8099 27.6382C30.5356 26.2404 31.2613 24.8427 32.0066 23.4444C32.1441 23.185 33.3795 21.3078 33.2425 21.0662C35.7531 25.8767 38.1071 33.9264 44.7171 33.9264C44.9327 33.9264 45.1291 33.9064 45.3447 33.8864C49.0322 33.527 51.0719 30.132 51.4642 29.4132L64.5272 6.80769C64.9632 6.04477 65.0843 5.13689 64.8636 4.28327C64.6429 3.42966 64.0986 2.70003 63.3503 2.25448" fill="#030712"/>
<path d="M68.0405 1.97805H67.0642V4.49805H66.3978V1.97805H65.4414V1.49805H68.0405V1.97805ZM69.2734 1.49805L70.1065 3.6647L70.9096 1.49805H71.7726V4.49805H71.1062V3.6647L71.1795 2.24471L70.3164 4.49805H69.8666L69.0069 2.24805L69.0735 3.6647V4.49805H68.407V1.49805H69.2734Z" fill="#030712"/>
<path d="M67.7087 41.8571C67.4356 41.8571 67.1824 41.8079 66.9493 41.7096C66.7162 41.6113 66.5122 41.4747 66.3375 41.2999C66.1626 41.1214 66.0261 40.9157 65.9277 40.6825C65.833 40.4494 65.7856 40.1981 65.7856 39.9286C65.7856 39.6591 65.8348 39.4078 65.9332 39.1746C66.0315 38.9415 66.1681 38.7376 66.3429 38.5627C66.5177 38.3843 66.7217 38.2458 66.9548 38.1475C67.1915 38.0492 67.4465 38 67.7197 38C67.9929 38 68.246 38.0492 68.4791 38.1475C68.7159 38.2422 68.9198 38.377 69.091 38.5518C69.2658 38.7266 69.4006 38.9306 69.4953 39.1637C69.5936 39.3932 69.6428 39.6445 69.6428 39.9177C69.6428 40.1908 69.5936 40.4458 69.4953 40.6825C69.397 40.9157 69.2585 41.1214 69.0801 41.2999C68.9052 41.4747 68.7013 41.6113 68.4682 41.7096C68.235 41.8079 67.9819 41.8571 67.7087 41.8571ZM68.2879 41.0049L67.7524 40.1799H68.2223L68.7577 41.0049H68.2879ZM67.7033 41.5566C67.9364 41.5566 68.1513 41.5148 68.348 41.431C68.5446 41.3472 68.7159 41.2325 68.8615 41.0868C69.0108 40.9375 69.1256 40.7627 69.2057 40.5623C69.2859 40.362 69.3259 40.1471 69.3259 39.9177C69.3259 39.6881 69.2859 39.4751 69.2057 39.2784C69.1256 39.0817 69.0127 38.9105 68.867 38.7649C68.725 38.6192 68.5556 38.5063 68.3589 38.4262C68.1658 38.3423 67.9528 38.3005 67.7197 38.3005C67.4866 38.3005 67.2699 38.3423 67.0696 38.4262C66.8728 38.5063 66.7017 38.621 66.556 38.7703C66.4139 38.9196 66.301 39.0927 66.2172 39.2893C66.1372 39.486 66.097 39.6991 66.097 39.9286C66.097 40.158 66.1372 40.3711 66.2172 40.5678C66.2974 40.7645 66.4103 40.9375 66.556 41.0868C66.7017 41.2361 66.8728 41.3527 67.0696 41.4365C67.2662 41.5166 67.4775 41.5566 67.7033 41.5566ZM66.9057 41.0049V38.8523H67.8016C68.0857 38.8523 68.3079 38.9196 68.4682 39.0545C68.6284 39.1892 68.7086 39.3713 68.7086 39.6008C68.7086 39.8375 68.6284 40.0215 68.4682 40.1525C68.3079 40.2837 68.0857 40.3493 67.8016 40.3493H67.3755V41.0049H66.9057ZM67.37 39.9832H67.7743C67.9273 39.9832 68.0457 39.9504 68.1294 39.8849C68.2132 39.8157 68.2551 39.721 68.2551 39.6008C68.2551 39.4805 68.2132 39.3877 68.1294 39.3221C68.0457 39.2566 67.9273 39.2238 67.7743 39.2238H67.37V39.9832Z" fill="#030712"/>
</g>
</g>
<defs>
<clipPath id="clip0_3044_47754">
<rect width="72" height="48" fill="white" transform="translate(0 0.5)"/>
</clipPath>
<clipPath id="clip1_3044_47754">
<rect width="72" height="48" fill="white" transform="translate(0 0.5)"/>
</clipPath>
</defs>
</svg>
