<svg
    xmlns="http://www.w3.org/2000/svg"
    width={154}
    height={45}
    fill="none"
    {...props}
  >
    <g clipPath="url(#a)">
      <mask
        id="b"
        width={154}
        height={45}
        x={0}
        y={0}
        maskUnits="userSpaceOnUse"
        style={{
          maskType: "luminance",
        }}
      >
        <path fill="#fff" d="M153.203.9H.993v43.2h152.21V.9Z" />
      </mask>
      <g mask="url(#b)">
        <path
          fill="#030712"
          d="m73.856 36.803-1.881-2.685c-.176 0-.352.028-.55.028h-2.16v2.657h-1.247v-8.735h3.407c2.273 0 3.643 1.149 3.643 3.044a2.76 2.76 0 0 1-1.92 2.76l2.072 2.93h-1.364Zm-.035-5.69c0-1.248-.835-1.96-2.435-1.96h-2.114v3.93h2.114c1.6 0 2.435-.723 2.435-1.97ZM88.298 35.718v1.085h-6.341v-8.735h6.162v1.085h-4.912v2.682h4.38v1.057h-4.38v2.819l5.091.007ZM111.924 29.154h-2.994v-1.086h7.223v1.085h-2.992v7.65h-1.237v-7.65ZM127.225 34.618h-4.643l-.959 2.185h-1.286l3.953-8.735h1.237l3.967 8.735h-1.307l-.962-2.185Zm-.448-.997-1.884-4.28-1.885 4.28h3.769ZM135.66 28.068h1.247v7.65h4.732v1.085h-5.989l.01-8.735ZM146.372 35.781l.468-.986a4.581 4.581 0 0 0 2.928 1.025c1.533 0 2.192-.595 2.192-1.367 0-2.17-5.374-.8-5.374-4.098 0-1.367 1.058-2.533 3.398-2.533a5.225 5.225 0 0 1 2.853.786l-.42 1.015a4.574 4.574 0 0 0-2.433-.705c-1.509 0-2.157.634-2.157 1.41 0 2.166 5.377.81 5.377 4.069 0 1.356-1.089 2.523-3.436 2.523-1.356-.018-2.688-.473-3.396-1.139ZM101.451 28.068v2.703l-5.007-2.703h-1.247v8.735h1.247v-7.308l5.007 2.657v4.65h1.247v-8.734h-1.247Z"
        />
        <path
          fill="#005287"
          d="M46.406 7.435C50.321 3.771 54.93.9 60.302.9h10.12c2.06.029-2.15-.074-3.876 6.596-1.41 5.416-4.101 15.531-7.438 28.938-1.082 4.347-4.556 7.66-9.037 7.66H.994a23.2 23.2 0 0 0 6.93-3.654C17.906 32.754 37.235 16 46.406 7.435Z"
        />
        <path
          fill="#030712"
          d="M30.815 30.33c0-5.496 3.277-9.756 8.224-9.756 2.019 0 3.826 1.149 4.489 2.558l-2.368 1.459c-.384-.955-1.089-1.832-2.114-1.913-2.487-.19-4.397 2.677-4.781 6.694-.233 2.435.236 5.546 2.678 5.546.648 0 1.892-.67 2.114-1.145l.683-3.214h-1.807l.5-2.723h4.71l-1.236 6.888c-1.339 1.339-3.171 2.347-5.13 2.347-3.876.003-5.962-2.565-5.962-6.74ZM44.085 30.442c0-5.542 3.679-9.626 7.875-9.626 3.523 0 5.82 2.467 5.82 6.631 0 5.543-3.678 9.626-7.874 9.626-3.537 0-5.82-2.466-5.82-6.63Zm10.504-3.005c0-2.847-.952-4.58-2.71-4.58-2.248 0-4.468 3.354-4.468 7.508 0 2.85.952 4.58 2.706 4.58 2.252 0 4.472-3.35 4.472-7.508Z"
        />
      </g>
    </g>
    <defs>
      <clipPath id="a">
        <path fill="#fff" d="M.2.9h153.792v43.2H.2z" />
      </clipPath>
    </defs>
  </svg>