<svg width="18" height="18" viewBox="0 0 18 18" fill="none" xmlns="http://www.w3.org/2000/svg">
<path d="M2.25 13.0501C2.25 12.0103 2.25 11.4904 2.48404 11.1085C2.615 10.8948 2.79468 10.7151 3.00838 10.5841C3.39031 10.3501 3.9102 10.3501 4.95 10.3501C5.9898 10.3501 6.50969 10.3501 6.89162 10.5841C7.10532 10.7151 7.285 10.8948 7.41596 11.1085C7.65 11.4904 7.65 12.0103 7.65 13.0501C7.65 14.0899 7.65 14.6098 7.41596 14.9917C7.285 15.2054 7.10532 15.3851 6.89162 15.5161C6.50969 15.7501 5.9898 15.7501 4.95 15.7501C3.9102 15.7501 3.39031 15.7501 3.00838 15.5161C2.79468 15.3851 2.615 15.2054 2.48404 14.9917C2.25 14.6098 2.25 14.0899 2.25 13.0501Z" stroke="#9CA3AF" strokeWidth="1.7"/>
<path d="M10.3501 13.0501C10.3501 12.0103 10.3501 11.4904 10.5841 11.1085C10.7151 10.8948 10.8948 10.7151 11.1085 10.5841C11.4904 10.3501 12.0103 10.3501 13.0501 10.3501C14.0899 10.3501 14.6098 10.3501 14.9917 10.5841C15.2054 10.7151 15.3851 10.8948 15.5161 11.1085C15.7501 11.4904 15.7501 12.0103 15.7501 13.0501C15.7501 14.0899 15.7501 14.6098 15.5161 14.9917C15.3851 15.2054 15.2054 15.3851 14.9917 15.5161C14.6098 15.7501 14.0899 15.7501 13.0501 15.7501C12.0103 15.7501 11.4904 15.7501 11.1085 15.5161C10.8948 15.3851 10.7151 15.2054 10.5841 14.9917C10.3501 14.6098 10.3501 14.0899 10.3501 13.0501Z" stroke="#9CA3AF" strokeWidth="1.7"/>
<path d="M2.25 4.95C2.25 3.9102 2.25 3.39031 2.48404 3.00838C2.615 2.79468 2.79468 2.615 3.00838 2.48404C3.39031 2.25 3.9102 2.25 4.95 2.25C5.9898 2.25 6.50969 2.25 6.89162 2.48404C7.10532 2.615 7.285 2.79468 7.41596 3.00838C7.65 3.39031 7.65 3.9102 7.65 4.95C7.65 5.9898 7.65 6.50969 7.41596 6.89162C7.285 7.10532 7.10532 7.285 6.89162 7.41596C6.50969 7.65 5.9898 7.65 4.95 7.65C3.9102 7.65 3.39031 7.65 3.00838 7.41596C2.79468 7.285 2.615 7.10532 2.48404 6.89162C2.25 6.50969 2.25 5.9898 2.25 4.95Z" stroke="#9CA3AF" strokeWidth="1.7"/>
<path d="M10.3501 4.95C10.3501 3.9102 10.3501 3.39031 10.5841 3.00838C10.7151 2.79468 10.8948 2.615 11.1085 2.48404C11.4904 2.25 12.0103 2.25 13.0501 2.25C14.0899 2.25 14.6098 2.25 14.9917 2.48404C15.2054 2.615 15.3851 2.79468 15.5161 3.00838C15.7501 3.39031 15.7501 3.9102 15.7501 4.95C15.7501 5.9898 15.7501 6.50969 15.5161 6.89162C15.3851 7.10532 15.2054 7.285 14.9917 7.41596C14.6098 7.65 14.0899 7.65 13.0501 7.65C12.0103 7.65 11.4904 7.65 11.1085 7.41596C10.8948 7.285 10.7151 7.10532 10.5841 6.89162C10.3501 6.50969 10.3501 5.9898 10.3501 4.95Z" stroke="#9CA3AF" strokeWidth="1.7"/>
</svg>
