<svg width="32" height="32" viewBox="0 0 32 32" fill="none" xmlns="http://www.w3.org/2000/svg">
<path d="M15.9978 2.6665C11.9874 2.6665 9.38707 5.35849 6.31178 6.33971C5.06135 6.73868 4.43612 6.93816 4.1831 7.21937C3.93007 7.50058 3.85598 7.9115 3.70779 8.73335C2.12207 17.5278 5.58803 25.6585 13.8539 28.8231C14.742 29.1632 15.1861 29.3332 16.0021 29.3332C16.8182 29.3332 17.2622 29.1631 18.1503 28.8231C26.4156 25.6584 29.8783 17.5278 28.2921 8.73334C28.1439 7.91136 28.0697 7.50036 27.8167 7.21915C27.5636 6.93794 26.9384 6.73857 25.6881 6.33982C22.6116 5.3587 20.0083 2.6665 15.9978 2.6665Z" stroke="#1F2937" strokeWidth="2.2" stroke-linecap="round" stroke-linejoin="round"/>
<path d="M12 17.3333C12 17.3333 13.3333 17.3333 14.6667 20C14.6667 20 18.902 13.3333 22.6667 12" stroke="#1F2937" strokeWidth="2.2" stroke-linecap="round" stroke-linejoin="round"/>
</svg>
