<svg width="27" height="24" viewBox="0 0 27 24" fill="none" xmlns="http://www.w3.org/2000/svg">
<path d="M24.0002 12.7619L14.0002 22.6659L4.00024 12.7619C3.34065 12.1201 2.8211 11.3486 2.4743 10.4961C2.12751 9.6436 1.96099 8.72853 1.98522 7.8085C2.00946 6.88848 2.22392 5.98344 2.61512 5.15037C3.00631 4.31731 3.56575 3.57426 4.25822 2.96803C4.95069 2.3618 5.76118 1.90551 6.63865 1.6279C7.51613 1.35029 8.44158 1.25737 9.35673 1.35499C10.2719 1.45262 11.1569 1.73867 11.9561 2.19513C12.7552 2.6516 13.4512 3.26859 14.0002 4.00726C14.5516 3.27396 15.2484 2.66235 16.047 2.21073C16.8457 1.75911 17.7289 1.47719 18.6415 1.38262C19.5541 1.28805 20.4763 1.38286 21.3506 1.66111C22.2249 1.93937 23.0323 2.39509 23.7223 2.99974C24.4123 3.6044 24.9701 4.34497 25.3608 5.17512C25.7515 6.00526 25.9666 6.9071 25.9927 7.8242C26.0187 8.7413 25.8553 9.65392 25.5124 10.5049C25.1696 11.3559 24.6548 12.127 24.0002 12.7699" stroke="#D855A0" strokeWidth="2" stroke-linecap="round" stroke-linejoin="round"/>
</svg>
