<svg width="22" height="26" viewBox="0 0 22 26" fill="none" xmlns="http://www.w3.org/2000/svg">
<path d="M13.6665 1V6.33333C13.6665 6.68696 13.807 7.02609 14.057 7.27614C14.3071 7.52619 14.6462 7.66667 14.9998 7.66667H20.3332M13.6665 1H4.33317C3.62593 1 2.94765 1.28095 2.44755 1.78105C1.94746 2.28115 1.6665 2.95942 1.6665 3.66667V22.3333C1.6665 23.0406 1.94746 23.7189 2.44755 24.219C2.94765 24.719 3.62593 25 4.33317 25H17.6665C18.3737 25 19.052 24.719 19.5521 24.219C20.0522 23.7189 20.3332 23.0406 20.3332 22.3333V7.66667M13.6665 1L20.3332 7.66667M6.99984 9H8.33317M6.99984 14.3333H14.9998M6.99984 19.6667H14.9998" stroke="#D855A0" strokeWidth="2" stroke-linecap="round" stroke-linejoin="round"/>
</svg>
