<svg width="26" height="26" viewBox="0 0 26 26" fill="none" xmlns="http://www.w3.org/2000/svg">
<path d="M12.9998 13C12.6462 13 12.3071 12.8595 12.057 12.6095C11.807 12.3594 11.6665 12.0203 11.6665 11.6667C11.6665 11.313 11.807 10.9739 12.057 10.7239C12.3071 10.4738 12.6462 10.3333 12.9998 10.3333C13.3535 10.3333 13.6926 10.4738 13.9426 10.7239C14.1927 10.9739 14.3332 11.313 14.3332 11.6667C14.3332 12.0203 14.1927 12.3594 13.9426 12.6095C13.6926 12.8595 13.3535 13 12.9998 13ZM12.9998 13V16.3333M12.9999 1C16.1144 3.75543 20.1792 5.19009 24.3333 5C24.9381 7.05735 25.1231 9.21529 24.8774 11.3456C24.6318 13.4759 23.9604 15.535 22.9031 17.4007C21.8459 19.2664 20.4245 20.9005 18.7232 22.206C17.022 23.5114 15.0757 24.4616 12.9999 25C10.9242 24.4616 8.97792 23.5114 7.27667 22.206C5.57542 20.9005 4.15395 19.2664 3.09674 17.4007C2.03952 15.535 1.36812 13.4759 1.12244 11.3456C0.876764 9.21529 1.06182 7.05735 1.66661 5C5.82065 5.19009 9.8855 3.75543 12.9999 1Z" stroke="#D855A0" strokeWidth="2" stroke-linecap="round" stroke-linejoin="round"/>
</svg>
