<svg width="32" height="32" viewBox="0 0 32 32" fill="none" xmlns="http://www.w3.org/2000/svg">
<path d="M24.8218 26.6665H25.4754C27.0085 26.6665 28.2279 25.968 29.3228 24.9913C32.1044 22.5099 25.5658 19.9998 23.3337 19.9998M20.667 6.75819C20.9697 6.69814 21.2841 6.6665 21.6067 6.6665C24.0332 6.6665 26.0003 8.45736 26.0003 10.6665C26.0003 12.8756 24.0332 14.6665 21.6067 14.6665C21.2841 14.6665 20.9697 14.6349 20.667 14.5748" stroke="#1F2937" strokeWidth="2.2" stroke-linecap="round"/>
<path d="M5.97508 21.4814C4.40312 22.3238 0.281516 24.044 2.79185 26.1964C4.01812 27.2479 5.38388 27.9998 7.10096 27.9998H16.899C18.6161 27.9998 19.9819 27.2479 21.2082 26.1964C23.7185 24.044 19.5969 22.3238 18.0249 21.4814C14.3387 19.506 9.66132 19.506 5.97508 21.4814Z" stroke="#1F2937" strokeWidth="2.2"/>
<path d="M17.3333 9.99984C17.3333 12.9454 14.9455 15.3332 12 15.3332C9.05448 15.3332 6.66667 12.9454 6.66667 9.99984C6.66667 7.05432 9.05448 4.6665 12 4.6665C14.9455 4.6665 17.3333 7.05432 17.3333 9.99984Z" stroke="#1F2937" strokeWidth="2.2"/>
</svg>
